M48
; DRILL file {KiCad 7.0.1} date Tue Feb 20 00:17:53 2024
; FORMAT={-:-/ absolute / inch / decimal}
; #@! TF.CreationDate,2024-02-20T00:17:53-05:00
; #@! TF.GenerationSoftware,Kicad,Pcbnew,7.0.1
; #@! TF.FileFunction,Plated,1,2,PTH
FMAT,2
INCH
; #@! TA.AperFunction,Plated,PTH,ViaDrill
T1C0.0157
; #@! TA.AperFunction,Plated,PTH,ComponentDrill
T2C0.0177
; #@! TA.AperFunction,Plated,PTH,ComponentDrill
T3C0.0394
%
G90
G05
T1
X3.426Y-4.3737
X3.4317Y-4.1755
X3.4326Y-3.9385
X3.4326Y-4.2675
X3.4355Y-4.076
X3.4364Y-4.0058
X3.6905Y-3.5508
X3.6981Y-3.7726
X3.6991Y-3.8276
X3.7457Y-4.1922
X3.7532Y-4.0485
X3.7559Y-4.1083
X3.7644Y-4.1598
X3.7692Y-3.5536
X3.7891Y-4.3756
X3.7894Y-4.2421
X3.7894Y-4.3081
X3.7914Y-4.1339
X3.8669Y-3.9025
X3.9522Y-3.9035
X3.9626Y-4.1348
X4.0299Y-3.7944
X4.0299Y-3.9044
X4.101Y-3.9054
X4.1465Y-4.1367
X4.3228Y-4.1367
X4.3352Y-4.3794
X4.411Y-4.3784
X4.4907Y-3.9123
X4.4907Y-4.0107
X4.4907Y-4.0895
X4.4907Y-4.1879
X4.6072Y-3.5498
X4.7153Y-3.5508
X4.7902Y-4.3803
X4.8025Y-3.5517
X4.8395Y-4.2533
X4.8405Y-3.858
X4.8405Y-4.35
X4.8414Y-3.6323
X4.8414Y-4.1243
X4.8424Y-4.0428
X4.8433Y-3.7698
X4.8433Y-3.9499
X4.8443Y-3.7044
T3
X3.9114Y-4.3102
X3.9134Y-3.6228
X4.1456Y-3.6044
X4.2456Y-3.6044
X4.3456Y-3.6044
X4.4456Y-3.6044
T2
G00X3.441Y-3.5577
M15
G01X3.4725Y-3.5577
M16
G05
G00X3.4725Y-3.8392
M15
G01X3.441Y-3.8392
M16
G05
T0
M30
