%TF.GenerationSoftware,KiCad,Pcbnew,7.0.1*%
%TF.CreationDate,2024-02-20T00:05:38-05:00*%
%TF.ProjectId,usb test board,75736220-7465-4737-9420-626f6172642e,rev?*%
%TF.SameCoordinates,Original*%
%TF.FileFunction,Legend,Top*%
%TF.FilePolarity,Positive*%
%FSLAX46Y46*%
G04 Gerber Fmt 4.6, Leading zero omitted, Abs format (unit mm)*
G04 Created by KiCad (PCBNEW 7.0.1) date 2024-02-20 00:05:38*
%MOMM*%
%LPD*%
G01*
G04 APERTURE LIST*
%ADD10C,0.150000*%
%ADD11C,0.120000*%
%ADD12C,0.127000*%
%ADD13C,0.200000*%
G04 APERTURE END LIST*
D10*
X105092428Y-93336095D02*
X104711476Y-93336095D01*
X104711476Y-93336095D02*
X104673380Y-93717047D01*
X104673380Y-93717047D02*
X104711476Y-93678952D01*
X104711476Y-93678952D02*
X104787666Y-93640857D01*
X104787666Y-93640857D02*
X104978142Y-93640857D01*
X104978142Y-93640857D02*
X105054333Y-93678952D01*
X105054333Y-93678952D02*
X105092428Y-93717047D01*
X105092428Y-93717047D02*
X105130523Y-93793238D01*
X105130523Y-93793238D02*
X105130523Y-93983714D01*
X105130523Y-93983714D02*
X105092428Y-94059904D01*
X105092428Y-94059904D02*
X105054333Y-94098000D01*
X105054333Y-94098000D02*
X104978142Y-94136095D01*
X104978142Y-94136095D02*
X104787666Y-94136095D01*
X104787666Y-94136095D02*
X104711476Y-94098000D01*
X104711476Y-94098000D02*
X104673380Y-94059904D01*
X105359095Y-93336095D02*
X105625762Y-94136095D01*
X105625762Y-94136095D02*
X105892428Y-93336095D01*
X116633523Y-92460619D02*
X116300190Y-91984428D01*
X116062095Y-92460619D02*
X116062095Y-91460619D01*
X116062095Y-91460619D02*
X116443047Y-91460619D01*
X116443047Y-91460619D02*
X116538285Y-91508238D01*
X116538285Y-91508238D02*
X116585904Y-91555857D01*
X116585904Y-91555857D02*
X116633523Y-91651095D01*
X116633523Y-91651095D02*
X116633523Y-91793952D01*
X116633523Y-91793952D02*
X116585904Y-91889190D01*
X116585904Y-91889190D02*
X116538285Y-91936809D01*
X116538285Y-91936809D02*
X116443047Y-91984428D01*
X116443047Y-91984428D02*
X116062095Y-91984428D01*
X117443047Y-92413000D02*
X117347809Y-92460619D01*
X117347809Y-92460619D02*
X117157333Y-92460619D01*
X117157333Y-92460619D02*
X117062095Y-92413000D01*
X117062095Y-92413000D02*
X117014476Y-92317761D01*
X117014476Y-92317761D02*
X117014476Y-91936809D01*
X117014476Y-91936809D02*
X117062095Y-91841571D01*
X117062095Y-91841571D02*
X117157333Y-91793952D01*
X117157333Y-91793952D02*
X117347809Y-91793952D01*
X117347809Y-91793952D02*
X117443047Y-91841571D01*
X117443047Y-91841571D02*
X117490666Y-91936809D01*
X117490666Y-91936809D02*
X117490666Y-92032047D01*
X117490666Y-92032047D02*
X117014476Y-92127285D01*
X117824000Y-91793952D02*
X118062095Y-92460619D01*
X118062095Y-92460619D02*
X118300190Y-91793952D01*
X118681143Y-92365380D02*
X118728762Y-92413000D01*
X118728762Y-92413000D02*
X118681143Y-92460619D01*
X118681143Y-92460619D02*
X118633524Y-92413000D01*
X118633524Y-92413000D02*
X118681143Y-92365380D01*
X118681143Y-92365380D02*
X118681143Y-92460619D01*
X120109714Y-91460619D02*
X120204952Y-91460619D01*
X120204952Y-91460619D02*
X120300190Y-91508238D01*
X120300190Y-91508238D02*
X120347809Y-91555857D01*
X120347809Y-91555857D02*
X120395428Y-91651095D01*
X120395428Y-91651095D02*
X120443047Y-91841571D01*
X120443047Y-91841571D02*
X120443047Y-92079666D01*
X120443047Y-92079666D02*
X120395428Y-92270142D01*
X120395428Y-92270142D02*
X120347809Y-92365380D01*
X120347809Y-92365380D02*
X120300190Y-92413000D01*
X120300190Y-92413000D02*
X120204952Y-92460619D01*
X120204952Y-92460619D02*
X120109714Y-92460619D01*
X120109714Y-92460619D02*
X120014476Y-92413000D01*
X120014476Y-92413000D02*
X119966857Y-92365380D01*
X119966857Y-92365380D02*
X119919238Y-92270142D01*
X119919238Y-92270142D02*
X119871619Y-92079666D01*
X119871619Y-92079666D02*
X119871619Y-91841571D01*
X119871619Y-91841571D02*
X119919238Y-91651095D01*
X119919238Y-91651095D02*
X119966857Y-91555857D01*
X119966857Y-91555857D02*
X120014476Y-91508238D01*
X120014476Y-91508238D02*
X120109714Y-91460619D01*
X120824000Y-91555857D02*
X120871619Y-91508238D01*
X120871619Y-91508238D02*
X120966857Y-91460619D01*
X120966857Y-91460619D02*
X121204952Y-91460619D01*
X121204952Y-91460619D02*
X121300190Y-91508238D01*
X121300190Y-91508238D02*
X121347809Y-91555857D01*
X121347809Y-91555857D02*
X121395428Y-91651095D01*
X121395428Y-91651095D02*
X121395428Y-91746333D01*
X121395428Y-91746333D02*
X121347809Y-91889190D01*
X121347809Y-91889190D02*
X120776381Y-92460619D01*
X120776381Y-92460619D02*
X121395428Y-92460619D01*
X112242523Y-93374190D02*
X112166333Y-93336095D01*
X112166333Y-93336095D02*
X112052047Y-93336095D01*
X112052047Y-93336095D02*
X111937761Y-93374190D01*
X111937761Y-93374190D02*
X111861571Y-93450380D01*
X111861571Y-93450380D02*
X111823476Y-93526571D01*
X111823476Y-93526571D02*
X111785380Y-93678952D01*
X111785380Y-93678952D02*
X111785380Y-93793238D01*
X111785380Y-93793238D02*
X111823476Y-93945619D01*
X111823476Y-93945619D02*
X111861571Y-94021809D01*
X111861571Y-94021809D02*
X111937761Y-94098000D01*
X111937761Y-94098000D02*
X112052047Y-94136095D01*
X112052047Y-94136095D02*
X112128238Y-94136095D01*
X112128238Y-94136095D02*
X112242523Y-94098000D01*
X112242523Y-94098000D02*
X112280619Y-94059904D01*
X112280619Y-94059904D02*
X112280619Y-93793238D01*
X112280619Y-93793238D02*
X112128238Y-93793238D01*
X112623476Y-94136095D02*
X112623476Y-93336095D01*
X112623476Y-93336095D02*
X113080619Y-94136095D01*
X113080619Y-94136095D02*
X113080619Y-93336095D01*
X113461571Y-94136095D02*
X113461571Y-93336095D01*
X113461571Y-93336095D02*
X113652047Y-93336095D01*
X113652047Y-93336095D02*
X113766333Y-93374190D01*
X113766333Y-93374190D02*
X113842523Y-93450380D01*
X113842523Y-93450380D02*
X113880618Y-93526571D01*
X113880618Y-93526571D02*
X113918714Y-93678952D01*
X113918714Y-93678952D02*
X113918714Y-93793238D01*
X113918714Y-93793238D02*
X113880618Y-93945619D01*
X113880618Y-93945619D02*
X113842523Y-94021809D01*
X113842523Y-94021809D02*
X113766333Y-94098000D01*
X113766333Y-94098000D02*
X113652047Y-94136095D01*
X113652047Y-94136095D02*
X113461571Y-94136095D01*
X107124476Y-94136095D02*
X107124476Y-93336095D01*
X107124476Y-93336095D02*
X107314952Y-93336095D01*
X107314952Y-93336095D02*
X107429238Y-93374190D01*
X107429238Y-93374190D02*
X107505428Y-93450380D01*
X107505428Y-93450380D02*
X107543523Y-93526571D01*
X107543523Y-93526571D02*
X107581619Y-93678952D01*
X107581619Y-93678952D02*
X107581619Y-93793238D01*
X107581619Y-93793238D02*
X107543523Y-93945619D01*
X107543523Y-93945619D02*
X107505428Y-94021809D01*
X107505428Y-94021809D02*
X107429238Y-94098000D01*
X107429238Y-94098000D02*
X107314952Y-94136095D01*
X107314952Y-94136095D02*
X107124476Y-94136095D01*
X107924476Y-94136095D02*
X107924476Y-93336095D01*
X107924476Y-93336095D02*
X108381619Y-94136095D01*
X108381619Y-94136095D02*
X108381619Y-93336095D01*
X109791476Y-94136095D02*
X109791476Y-93336095D01*
X109791476Y-93336095D02*
X109981952Y-93336095D01*
X109981952Y-93336095D02*
X110096238Y-93374190D01*
X110096238Y-93374190D02*
X110172428Y-93450380D01*
X110172428Y-93450380D02*
X110210523Y-93526571D01*
X110210523Y-93526571D02*
X110248619Y-93678952D01*
X110248619Y-93678952D02*
X110248619Y-93793238D01*
X110248619Y-93793238D02*
X110210523Y-93945619D01*
X110210523Y-93945619D02*
X110172428Y-94021809D01*
X110172428Y-94021809D02*
X110096238Y-94098000D01*
X110096238Y-94098000D02*
X109981952Y-94136095D01*
X109981952Y-94136095D02*
X109791476Y-94136095D01*
X110591476Y-94136095D02*
X110591476Y-93336095D01*
X110591476Y-93336095D02*
X110896238Y-93336095D01*
X110896238Y-93336095D02*
X110972428Y-93374190D01*
X110972428Y-93374190D02*
X111010523Y-93412285D01*
X111010523Y-93412285D02*
X111048619Y-93488476D01*
X111048619Y-93488476D02*
X111048619Y-93602761D01*
X111048619Y-93602761D02*
X111010523Y-93678952D01*
X111010523Y-93678952D02*
X110972428Y-93717047D01*
X110972428Y-93717047D02*
X110896238Y-93755142D01*
X110896238Y-93755142D02*
X110591476Y-93755142D01*
%TO.C,TP1*%
X98613095Y-95437619D02*
X99184523Y-95437619D01*
X98898809Y-96437619D02*
X98898809Y-95437619D01*
X99517857Y-96437619D02*
X99517857Y-95437619D01*
X99517857Y-95437619D02*
X99898809Y-95437619D01*
X99898809Y-95437619D02*
X99994047Y-95485238D01*
X99994047Y-95485238D02*
X100041666Y-95532857D01*
X100041666Y-95532857D02*
X100089285Y-95628095D01*
X100089285Y-95628095D02*
X100089285Y-95770952D01*
X100089285Y-95770952D02*
X100041666Y-95866190D01*
X100041666Y-95866190D02*
X99994047Y-95913809D01*
X99994047Y-95913809D02*
X99898809Y-95961428D01*
X99898809Y-95961428D02*
X99517857Y-95961428D01*
X101041666Y-96437619D02*
X100470238Y-96437619D01*
X100755952Y-96437619D02*
X100755952Y-95437619D01*
X100755952Y-95437619D02*
X100660714Y-95580476D01*
X100660714Y-95580476D02*
X100565476Y-95675714D01*
X100565476Y-95675714D02*
X100470238Y-95723333D01*
%TO.C,R1*%
X109463095Y-109179332D02*
X109082142Y-109445999D01*
X109463095Y-109636475D02*
X108663095Y-109636475D01*
X108663095Y-109636475D02*
X108663095Y-109331713D01*
X108663095Y-109331713D02*
X108701190Y-109255523D01*
X108701190Y-109255523D02*
X108739285Y-109217428D01*
X108739285Y-109217428D02*
X108815476Y-109179332D01*
X108815476Y-109179332D02*
X108929761Y-109179332D01*
X108929761Y-109179332D02*
X109005952Y-109217428D01*
X109005952Y-109217428D02*
X109044047Y-109255523D01*
X109044047Y-109255523D02*
X109082142Y-109331713D01*
X109082142Y-109331713D02*
X109082142Y-109636475D01*
X109463095Y-108417428D02*
X109463095Y-108874571D01*
X109463095Y-108645999D02*
X108663095Y-108645999D01*
X108663095Y-108645999D02*
X108777380Y-108722190D01*
X108777380Y-108722190D02*
X108853571Y-108798380D01*
X108853571Y-108798380D02*
X108891666Y-108874571D01*
%TO.C,TP2*%
X98539095Y-105595619D02*
X99110523Y-105595619D01*
X98824809Y-106595619D02*
X98824809Y-105595619D01*
X99443857Y-106595619D02*
X99443857Y-105595619D01*
X99443857Y-105595619D02*
X99824809Y-105595619D01*
X99824809Y-105595619D02*
X99920047Y-105643238D01*
X99920047Y-105643238D02*
X99967666Y-105690857D01*
X99967666Y-105690857D02*
X100015285Y-105786095D01*
X100015285Y-105786095D02*
X100015285Y-105928952D01*
X100015285Y-105928952D02*
X99967666Y-106024190D01*
X99967666Y-106024190D02*
X99920047Y-106071809D01*
X99920047Y-106071809D02*
X99824809Y-106119428D01*
X99824809Y-106119428D02*
X99443857Y-106119428D01*
X100396238Y-105690857D02*
X100443857Y-105643238D01*
X100443857Y-105643238D02*
X100539095Y-105595619D01*
X100539095Y-105595619D02*
X100777190Y-105595619D01*
X100777190Y-105595619D02*
X100872428Y-105643238D01*
X100872428Y-105643238D02*
X100920047Y-105690857D01*
X100920047Y-105690857D02*
X100967666Y-105786095D01*
X100967666Y-105786095D02*
X100967666Y-105881333D01*
X100967666Y-105881333D02*
X100920047Y-106024190D01*
X100920047Y-106024190D02*
X100348619Y-106595619D01*
X100348619Y-106595619D02*
X100967666Y-106595619D01*
%TO.C,J2*%
X111136958Y-106281158D02*
X111852627Y-106281158D01*
X111852627Y-106281158D02*
X111995761Y-106328870D01*
X111995761Y-106328870D02*
X112091184Y-106424292D01*
X112091184Y-106424292D02*
X112138895Y-106567426D01*
X112138895Y-106567426D02*
X112138895Y-106662849D01*
X111232380Y-105851756D02*
X111184669Y-105804045D01*
X111184669Y-105804045D02*
X111136958Y-105708623D01*
X111136958Y-105708623D02*
X111136958Y-105470066D01*
X111136958Y-105470066D02*
X111184669Y-105374644D01*
X111184669Y-105374644D02*
X111232380Y-105326932D01*
X111232380Y-105326932D02*
X111327803Y-105279221D01*
X111327803Y-105279221D02*
X111423226Y-105279221D01*
X111423226Y-105279221D02*
X111566359Y-105326932D01*
X111566359Y-105326932D02*
X112138895Y-105899468D01*
X112138895Y-105899468D02*
X112138895Y-105279221D01*
%TO.C,J1*%
X102431619Y-91884333D02*
X103145904Y-91884333D01*
X103145904Y-91884333D02*
X103288761Y-91931952D01*
X103288761Y-91931952D02*
X103384000Y-92027190D01*
X103384000Y-92027190D02*
X103431619Y-92170047D01*
X103431619Y-92170047D02*
X103431619Y-92265285D01*
X103431619Y-90884333D02*
X103431619Y-91455761D01*
X103431619Y-91170047D02*
X102431619Y-91170047D01*
X102431619Y-91170047D02*
X102574476Y-91265285D01*
X102574476Y-91265285D02*
X102669714Y-91360523D01*
X102669714Y-91360523D02*
X102717333Y-91455761D01*
%TO.C,D1*%
X103367095Y-109669475D02*
X102567095Y-109669475D01*
X102567095Y-109669475D02*
X102567095Y-109478999D01*
X102567095Y-109478999D02*
X102605190Y-109364713D01*
X102605190Y-109364713D02*
X102681380Y-109288523D01*
X102681380Y-109288523D02*
X102757571Y-109250428D01*
X102757571Y-109250428D02*
X102909952Y-109212332D01*
X102909952Y-109212332D02*
X103024238Y-109212332D01*
X103024238Y-109212332D02*
X103176619Y-109250428D01*
X103176619Y-109250428D02*
X103252809Y-109288523D01*
X103252809Y-109288523D02*
X103329000Y-109364713D01*
X103329000Y-109364713D02*
X103367095Y-109478999D01*
X103367095Y-109478999D02*
X103367095Y-109669475D01*
X103367095Y-108450428D02*
X103367095Y-108907571D01*
X103367095Y-108678999D02*
X102567095Y-108678999D01*
X102567095Y-108678999D02*
X102681380Y-108755190D01*
X102681380Y-108755190D02*
X102757571Y-108831380D01*
X102757571Y-108831380D02*
X102795666Y-108907571D01*
%TO.C,J6*%
X91764619Y-94274333D02*
X92478904Y-94274333D01*
X92478904Y-94274333D02*
X92621761Y-94321952D01*
X92621761Y-94321952D02*
X92717000Y-94417190D01*
X92717000Y-94417190D02*
X92764619Y-94560047D01*
X92764619Y-94560047D02*
X92764619Y-94655285D01*
X91764619Y-93369571D02*
X91764619Y-93560047D01*
X91764619Y-93560047D02*
X91812238Y-93655285D01*
X91812238Y-93655285D02*
X91859857Y-93702904D01*
X91859857Y-93702904D02*
X92002714Y-93798142D01*
X92002714Y-93798142D02*
X92193190Y-93845761D01*
X92193190Y-93845761D02*
X92574142Y-93845761D01*
X92574142Y-93845761D02*
X92669380Y-93798142D01*
X92669380Y-93798142D02*
X92717000Y-93750523D01*
X92717000Y-93750523D02*
X92764619Y-93655285D01*
X92764619Y-93655285D02*
X92764619Y-93464809D01*
X92764619Y-93464809D02*
X92717000Y-93369571D01*
X92717000Y-93369571D02*
X92669380Y-93321952D01*
X92669380Y-93321952D02*
X92574142Y-93274333D01*
X92574142Y-93274333D02*
X92336047Y-93274333D01*
X92336047Y-93274333D02*
X92240809Y-93321952D01*
X92240809Y-93321952D02*
X92193190Y-93369571D01*
X92193190Y-93369571D02*
X92145571Y-93464809D01*
X92145571Y-93464809D02*
X92145571Y-93655285D01*
X92145571Y-93655285D02*
X92193190Y-93750523D01*
X92193190Y-93750523D02*
X92240809Y-93798142D01*
X92240809Y-93798142D02*
X92336047Y-93845761D01*
%TO.C,J5*%
X95206119Y-104160333D02*
X95920404Y-104160333D01*
X95920404Y-104160333D02*
X96063261Y-104207952D01*
X96063261Y-104207952D02*
X96158500Y-104303190D01*
X96158500Y-104303190D02*
X96206119Y-104446047D01*
X96206119Y-104446047D02*
X96206119Y-104541285D01*
X95206119Y-103207952D02*
X95206119Y-103684142D01*
X95206119Y-103684142D02*
X95682309Y-103731761D01*
X95682309Y-103731761D02*
X95634690Y-103684142D01*
X95634690Y-103684142D02*
X95587071Y-103588904D01*
X95587071Y-103588904D02*
X95587071Y-103350809D01*
X95587071Y-103350809D02*
X95634690Y-103255571D01*
X95634690Y-103255571D02*
X95682309Y-103207952D01*
X95682309Y-103207952D02*
X95777547Y-103160333D01*
X95777547Y-103160333D02*
X96015642Y-103160333D01*
X96015642Y-103160333D02*
X96110880Y-103207952D01*
X96110880Y-103207952D02*
X96158500Y-103255571D01*
X96158500Y-103255571D02*
X96206119Y-103350809D01*
X96206119Y-103350809D02*
X96206119Y-103588904D01*
X96206119Y-103588904D02*
X96158500Y-103684142D01*
X96158500Y-103684142D02*
X96110880Y-103731761D01*
D11*
%TO.C,TP1*%
X97633000Y-90264000D02*
X102033000Y-90264000D01*
X97633000Y-94664000D02*
X97633000Y-90264000D01*
X102033000Y-90264000D02*
X102033000Y-94664000D01*
X102033000Y-94664000D02*
X97633000Y-94664000D01*
%TO.C,R1*%
X106508000Y-109773064D02*
X106508000Y-108318936D01*
X108328000Y-109773064D02*
X108328000Y-108318936D01*
%TO.C,J3*%
X100651000Y-92020000D02*
G75*
G03*
X100651000Y-92020000I-1251000J0D01*
G01*
%TO.C,TP2*%
X97601000Y-106831000D02*
X102001000Y-106831000D01*
X97601000Y-111231000D02*
X97601000Y-106831000D01*
X102001000Y-106831000D02*
X102001000Y-111231000D01*
X102001000Y-111231000D02*
X97601000Y-111231000D01*
%TO.C,J4*%
X100601000Y-109480000D02*
G75*
G03*
X100601000Y-109480000I-1251000J0D01*
G01*
D12*
%TO.C,J2*%
X119465000Y-109123000D02*
X128065000Y-109123000D01*
X128065000Y-109123000D02*
X128065000Y-96623000D01*
X114065000Y-108673000D02*
X114065000Y-107023000D01*
X114065000Y-98723000D02*
X114065000Y-97073000D01*
X128065000Y-96623000D02*
X119465000Y-96623000D01*
D13*
X113415000Y-107373000D02*
G75*
G03*
X113415000Y-107373000I-100000J0D01*
G01*
D11*
%TO.C,J1*%
X103969000Y-92881000D02*
X103969000Y-91551000D01*
X105299000Y-92881000D02*
X103969000Y-92881000D01*
X106569000Y-92881000D02*
X114249000Y-92881000D01*
X106569000Y-92881000D02*
X106569000Y-90221000D01*
X114249000Y-92881000D02*
X114249000Y-90221000D01*
X106569000Y-90221000D02*
X114249000Y-90221000D01*
%TO.C,D1*%
X105784000Y-106619000D02*
X103514000Y-106619000D01*
X103514000Y-106619000D02*
X103514000Y-110679000D01*
X105784000Y-110679000D02*
X105784000Y-106619000D01*
%TO.C,J6*%
X90712000Y-90131000D02*
X90712000Y-90791000D01*
X88982000Y-90131000D02*
X90712000Y-90131000D01*
X86412000Y-90131000D02*
X86622000Y-90131000D01*
X91412000Y-92181000D02*
X91022000Y-92181000D01*
X91412000Y-92181000D02*
X91412000Y-92631000D01*
X90712000Y-97751000D02*
X90712000Y-97101000D01*
X88982000Y-97751000D02*
X90712000Y-97751000D01*
X86412000Y-97751000D02*
X86622000Y-97751000D01*
D13*
%TO.C,J5*%
X91748500Y-100782000D02*
X90538500Y-100782000D01*
X87818500Y-100782000D02*
X86328500Y-100782000D01*
X86328500Y-100782000D02*
X86328500Y-109722000D01*
X91748500Y-109722000D02*
X90538500Y-109722000D01*
X86328500Y-109722000D02*
X87818500Y-109722000D01*
X94938500Y-101472000D02*
G75*
G03*
X94938500Y-101472000I-100000J0D01*
G01*
%TD*%
M02*
