%TF.GenerationSoftware,KiCad,Pcbnew,7.0.1*%
%TF.CreationDate,2024-02-20T00:05:38-05:00*%
%TF.ProjectId,usb test board,75736220-7465-4737-9420-626f6172642e,rev?*%
%TF.SameCoordinates,Original*%
%TF.FileFunction,Copper,L2,Bot*%
%TF.FilePolarity,Positive*%
%FSLAX46Y46*%
G04 Gerber Fmt 4.6, Leading zero omitted, Abs format (unit mm)*
G04 Created by KiCad (PCBNEW 7.0.1) date 2024-02-20 00:05:38*
%MOMM*%
%LPD*%
G01*
G04 APERTURE LIST*
%TA.AperFunction,ComponentPad*%
%ADD10C,2.000000*%
%TD*%
%TA.AperFunction,ComponentPad*%
%ADD11R,1.700000X1.700000*%
%TD*%
%TA.AperFunction,ComponentPad*%
%ADD12O,1.700000X1.700000*%
%TD*%
%TA.AperFunction,ComponentPad*%
%ADD13O,1.900000X1.050000*%
%TD*%
%TA.AperFunction,ViaPad*%
%ADD14C,0.800000*%
%TD*%
%TA.AperFunction,Conductor*%
%ADD15C,0.250000*%
%TD*%
%TA.AperFunction,Conductor*%
%ADD16C,0.200000*%
%TD*%
G04 APERTURE END LIST*
D10*
%TO.P,J3,1,Pin_1*%
%TO.N,/VCC_5V*%
X99400000Y-92020000D03*
%TD*%
%TO.P,J4,1,Pin_1*%
%TO.N,/5V*%
X99350000Y-109480000D03*
%TD*%
D11*
%TO.P,J1,1,Pin_1*%
%TO.N,/5V*%
X105299000Y-91551000D03*
D12*
%TO.P,J1,2,Pin_2*%
%TO.N,/DN*%
X107839000Y-91551000D03*
%TO.P,J1,3,Pin_3*%
%TO.N,/DP*%
X110379000Y-91551000D03*
%TO.P,J1,4,Pin_4*%
%TO.N,GND*%
X112919000Y-91551000D03*
%TD*%
D13*
%TO.P,J6,6,Shield*%
%TO.N,GND*%
X87802000Y-90366000D03*
X87802000Y-97516000D03*
%TD*%
D14*
%TO.N,/DN*%
X114065000Y-103873000D03*
X94925000Y-104350499D03*
X95615942Y-105657977D03*
%TO.N,/DP*%
X95300000Y-106977500D03*
X96300500Y-105000001D03*
%TO.N,GND*%
X104165000Y-99196000D03*
X122972000Y-92261000D03*
X105321000Y-105071000D03*
X123044000Y-94091000D03*
X121671000Y-111260000D03*
X117024000Y-90166000D03*
X122948000Y-97992000D03*
X87189000Y-100039000D03*
X93956000Y-97221000D03*
X121984000Y-90214000D03*
X109800000Y-105071000D03*
X98218000Y-99123000D03*
X87285000Y-101748000D03*
X122972000Y-104758000D03*
X102359000Y-99172000D03*
X122996000Y-102687000D03*
X96250000Y-109425000D03*
X93739000Y-90190000D03*
X123020000Y-100327000D03*
X119769000Y-90190000D03*
X102359000Y-96378000D03*
X95737000Y-90262000D03*
X87261000Y-103530000D03*
X122948000Y-110489000D03*
X93932000Y-95825000D03*
X87189000Y-108394000D03*
X96243000Y-111139000D03*
X110113000Y-111236000D03*
X87021000Y-111091000D03*
X100385000Y-99148000D03*
X123020000Y-95752000D03*
X122924000Y-108033000D03*
X114065000Y-99373000D03*
X112040000Y-111212000D03*
X100650000Y-105023000D03*
X87165000Y-106058000D03*
%TO.N,/5V*%
X114065000Y-106373000D03*
%TO.N,/VCC_5V*%
X95332000Y-102833000D03*
X96250000Y-107750000D03*
%TO.N,/DP*%
X114065000Y-101873000D03*
%TD*%
D15*
%TO.N,/5V*%
X113183000Y-106373000D02*
X114065000Y-106373000D01*
X105299000Y-91551000D02*
X105299000Y-98489000D01*
X105299000Y-98489000D02*
X113183000Y-106373000D01*
D16*
%TO.N,/DN*%
X108883999Y-96449934D02*
X108883999Y-96500006D01*
X109683931Y-95075002D02*
X109458929Y-95075002D01*
X109808859Y-94799858D02*
X109808859Y-94950074D01*
X108883999Y-96500006D02*
X108883999Y-99982199D01*
X109458929Y-94674930D02*
X109683931Y-94674930D01*
X107839000Y-91551000D02*
X108883999Y-92595999D01*
X108883994Y-96449934D02*
G75*
G03*
X108759071Y-96325006I-124894J34D01*
G01*
X107959194Y-95750076D02*
G75*
G03*
X108534069Y-96325006I574906J-24D01*
G01*
X108534069Y-95074939D02*
G75*
G03*
X107959139Y-95649932I31J-574961D01*
G01*
X108883999Y-99982199D02*
X111999801Y-103098001D01*
X109683931Y-95075059D02*
G75*
G03*
X109808859Y-94950074I-31J124959D01*
G01*
X109808870Y-94799858D02*
G75*
G03*
X109683931Y-94674930I-124970J-42D01*
G01*
X108883970Y-94100000D02*
G75*
G03*
X109458929Y-94674930I574930J0D01*
G01*
%TO.N,/DP*%
X113290001Y-102647999D02*
X114065000Y-101873000D01*
X112186199Y-102647999D02*
X113290001Y-102647999D01*
%TO.N,/DN*%
X109458929Y-95075002D02*
X108534069Y-95075002D01*
%TO.N,/DP*%
X109334001Y-99795801D02*
X112186199Y-102647999D01*
X109334001Y-96500006D02*
X109334001Y-99795801D01*
X109334001Y-96449934D02*
X109334001Y-96500006D01*
X108409141Y-95649932D02*
X108409141Y-95750076D01*
%TO.N,/DN*%
X108883999Y-92595999D02*
X108883999Y-94100000D01*
%TO.N,/DP*%
X109458929Y-95525004D02*
X108534069Y-95525004D01*
X110258861Y-94799858D02*
X110258861Y-94950074D01*
X109458929Y-94224928D02*
X109683931Y-94224928D01*
X109333996Y-96449934D02*
G75*
G03*
X108759071Y-95875004I-574896J34D01*
G01*
X109683931Y-95525061D02*
G75*
G03*
X110258861Y-94950074I-31J574961D01*
G01*
X109683931Y-95525004D02*
X109458929Y-95525004D01*
X110379000Y-91551000D02*
X109334001Y-92595999D01*
X110258872Y-94799858D02*
G75*
G03*
X109683931Y-94224928I-574972J-42D01*
G01*
%TO.N,/DN*%
X108534069Y-96325006D02*
X108759071Y-96325006D01*
%TO.N,/DP*%
X109334001Y-92595999D02*
X109334001Y-94100000D01*
%TO.N,/DN*%
X111999801Y-103098001D02*
X113290001Y-103098001D01*
%TO.N,/DP*%
X109333972Y-94100000D02*
G75*
G03*
X109458929Y-94224928I124928J0D01*
G01*
%TO.N,/DN*%
X107959139Y-95649932D02*
X107959139Y-95750076D01*
%TO.N,/DP*%
X108534069Y-95524941D02*
G75*
G03*
X108409141Y-95649932I31J-124959D01*
G01*
X108534069Y-95875004D02*
X108759071Y-95875004D01*
%TO.N,/DN*%
X113290001Y-103098001D02*
X114065000Y-103873000D01*
%TO.N,/DP*%
X108409196Y-95750076D02*
G75*
G03*
X108534069Y-95875004I124904J-24D01*
G01*
X95447500Y-106977500D02*
X95300000Y-106977500D01*
X96300500Y-106124500D02*
X95447500Y-106977500D01*
X96300500Y-105000001D02*
X96300500Y-106124500D01*
%TO.N,/DN*%
X95615942Y-105041441D02*
X95615942Y-105657977D01*
X94925000Y-104350499D02*
X95615942Y-105041441D01*
D15*
%TO.N,/VCC_5V*%
X96208000Y-102833000D02*
X95332000Y-102833000D01*
X96975000Y-103600000D02*
X96208000Y-102833000D01*
X96975000Y-107025000D02*
X96975000Y-103600000D01*
X96250000Y-107750000D02*
X96975000Y-107025000D01*
%TO.N,GND*%
X112919000Y-91551000D02*
X112919000Y-98227000D01*
X112919000Y-98227000D02*
X114065000Y-99373000D01*
%TO.N,/VCC_5V*%
X98900000Y-91525000D02*
X99833000Y-92458000D01*
X99833000Y-92458000D02*
X99833000Y-96150000D01*
X95332000Y-100651000D02*
X95332000Y-102833000D01*
X99833000Y-96150000D02*
X95332000Y-100651000D01*
%TD*%
%TA.AperFunction,Conductor*%
%TO.N,GND*%
G36*
X123681611Y-89425950D02*
G01*
X123743426Y-89442486D01*
X123788767Y-89487641D01*
X123805558Y-89549389D01*
X123906429Y-111836939D01*
X123890004Y-111899176D01*
X123844592Y-111944793D01*
X123782430Y-111961500D01*
X86527228Y-111961500D01*
X86465394Y-111944983D01*
X86420033Y-111899832D01*
X86403229Y-111838076D01*
X86399243Y-110980500D01*
X86392269Y-109480000D01*
X97844356Y-109480000D01*
X97864891Y-109727816D01*
X97864891Y-109727819D01*
X97864892Y-109727821D01*
X97925937Y-109968881D01*
X97970960Y-110071523D01*
X98025825Y-110196604D01*
X98025827Y-110196607D01*
X98161836Y-110404785D01*
X98330256Y-110587738D01*
X98330259Y-110587740D01*
X98526485Y-110740470D01*
X98526487Y-110740471D01*
X98526491Y-110740474D01*
X98745190Y-110858828D01*
X98980386Y-110939571D01*
X99225665Y-110980500D01*
X99474335Y-110980500D01*
X99719614Y-110939571D01*
X99954810Y-110858828D01*
X100173509Y-110740474D01*
X100369744Y-110587738D01*
X100538164Y-110404785D01*
X100674173Y-110196607D01*
X100774063Y-109968881D01*
X100835108Y-109727821D01*
X100855643Y-109480000D01*
X100835108Y-109232179D01*
X100774063Y-108991119D01*
X100674173Y-108763393D01*
X100538164Y-108555215D01*
X100369744Y-108372262D01*
X100266927Y-108292236D01*
X100173514Y-108219529D01*
X100173510Y-108219526D01*
X100173509Y-108219526D01*
X99954810Y-108101172D01*
X99954806Y-108101170D01*
X99954805Y-108101170D01*
X99719615Y-108020429D01*
X99474335Y-107979500D01*
X99225665Y-107979500D01*
X98980384Y-108020429D01*
X98745194Y-108101170D01*
X98745190Y-108101171D01*
X98745190Y-108101172D01*
X98657710Y-108148513D01*
X98526485Y-108219529D01*
X98330259Y-108372259D01*
X98330256Y-108372261D01*
X98330256Y-108372262D01*
X98161837Y-108555214D01*
X98025825Y-108763395D01*
X97925938Y-108991117D01*
X97864891Y-109232183D01*
X97844356Y-109480000D01*
X86392269Y-109480000D01*
X86386051Y-108141999D01*
X92028033Y-108141999D01*
X92047812Y-108292235D01*
X92105801Y-108432231D01*
X92105802Y-108432233D01*
X92198049Y-108552451D01*
X92318267Y-108644698D01*
X92458263Y-108702686D01*
X92458264Y-108702687D01*
X92570779Y-108717500D01*
X92570780Y-108717500D01*
X92646220Y-108717500D01*
X92646221Y-108717500D01*
X92702477Y-108710093D01*
X92758736Y-108702687D01*
X92898733Y-108644698D01*
X93018951Y-108552451D01*
X93111198Y-108432233D01*
X93169187Y-108292236D01*
X93188966Y-108142000D01*
X93169187Y-107991764D01*
X93111198Y-107851767D01*
X93018951Y-107731549D01*
X92898733Y-107639302D01*
X92898731Y-107639301D01*
X92758735Y-107581312D01*
X92646221Y-107566500D01*
X92646220Y-107566500D01*
X92570780Y-107566500D01*
X92570779Y-107566500D01*
X92458264Y-107581312D01*
X92318268Y-107639301D01*
X92198049Y-107731549D01*
X92105801Y-107851768D01*
X92047812Y-107991764D01*
X92028033Y-108141999D01*
X86386051Y-108141999D01*
X86368430Y-104350498D01*
X94019540Y-104350498D01*
X94039326Y-104538756D01*
X94097820Y-104718783D01*
X94192466Y-104882715D01*
X94319129Y-105023388D01*
X94472269Y-105134650D01*
X94645193Y-105211642D01*
X94645196Y-105211642D01*
X94645197Y-105211643D01*
X94668502Y-105216596D01*
X94728859Y-105248688D01*
X94763038Y-105307888D01*
X94760653Y-105376205D01*
X94730268Y-105469719D01*
X94717747Y-105588849D01*
X94710482Y-105657977D01*
X94718474Y-105734013D01*
X94730268Y-105846234D01*
X94788762Y-106026261D01*
X94818187Y-106077226D01*
X94834724Y-106134898D01*
X94822251Y-106193584D01*
X94783686Y-106239544D01*
X94694128Y-106304612D01*
X94567466Y-106445283D01*
X94472820Y-106609215D01*
X94414326Y-106789242D01*
X94394540Y-106977500D01*
X94414326Y-107165757D01*
X94472820Y-107345784D01*
X94567466Y-107509716D01*
X94694129Y-107650389D01*
X94847269Y-107761651D01*
X95020197Y-107838644D01*
X95205352Y-107878000D01*
X95205354Y-107878000D01*
X95254657Y-107878000D01*
X95305092Y-107888720D01*
X95346807Y-107919028D01*
X95372586Y-107963679D01*
X95377727Y-107979500D01*
X95422820Y-108118284D01*
X95517466Y-108282216D01*
X95644129Y-108422889D01*
X95797269Y-108534151D01*
X95970197Y-108611144D01*
X96155352Y-108650500D01*
X96155354Y-108650500D01*
X96344646Y-108650500D01*
X96344648Y-108650500D01*
X96468084Y-108624262D01*
X96529803Y-108611144D01*
X96702730Y-108534151D01*
X96843009Y-108432233D01*
X96855870Y-108422889D01*
X96982533Y-108282216D01*
X97077179Y-108118284D01*
X97118288Y-107991764D01*
X97135674Y-107938256D01*
X97153322Y-107770341D01*
X97164720Y-107729927D01*
X97188957Y-107695632D01*
X97358789Y-107525800D01*
X97374885Y-107512906D01*
X97376873Y-107510787D01*
X97376877Y-107510786D01*
X97422948Y-107461723D01*
X97425566Y-107459023D01*
X97445120Y-107439471D01*
X97447581Y-107436298D01*
X97455156Y-107427427D01*
X97485062Y-107395582D01*
X97494712Y-107378027D01*
X97505400Y-107361757D01*
X97517671Y-107345938D01*
X97517673Y-107345936D01*
X97535026Y-107305832D01*
X97540157Y-107295362D01*
X97552176Y-107273500D01*
X97561197Y-107257092D01*
X97566175Y-107237699D01*
X97572481Y-107219282D01*
X97574018Y-107215728D01*
X97580438Y-107200896D01*
X97587272Y-107157745D01*
X97589635Y-107146331D01*
X97600500Y-107104019D01*
X97600500Y-107083984D01*
X97602027Y-107064585D01*
X97605160Y-107044804D01*
X97601050Y-107001325D01*
X97600500Y-106989656D01*
X97600500Y-103682744D01*
X97602764Y-103662237D01*
X97600561Y-103592127D01*
X97600500Y-103588232D01*
X97600500Y-103560653D01*
X97599997Y-103556672D01*
X97599080Y-103545019D01*
X97599034Y-103543551D01*
X97597709Y-103501373D01*
X97592120Y-103482140D01*
X97588174Y-103463082D01*
X97585664Y-103443206D01*
X97569588Y-103402604D01*
X97565804Y-103391553D01*
X97556898Y-103360901D01*
X97553618Y-103349610D01*
X97543414Y-103332355D01*
X97534861Y-103314895D01*
X97527486Y-103296269D01*
X97527486Y-103296268D01*
X97501808Y-103260925D01*
X97495401Y-103251171D01*
X97473169Y-103213579D01*
X97459006Y-103199416D01*
X97446367Y-103184617D01*
X97434595Y-103168413D01*
X97400941Y-103140573D01*
X97392299Y-103132709D01*
X96708802Y-102449211D01*
X96695906Y-102433113D01*
X96644775Y-102385098D01*
X96641978Y-102382387D01*
X96622470Y-102362879D01*
X96619290Y-102360412D01*
X96610424Y-102352839D01*
X96578582Y-102322938D01*
X96561024Y-102313285D01*
X96544764Y-102302604D01*
X96528936Y-102290327D01*
X96488851Y-102272980D01*
X96478361Y-102267841D01*
X96440091Y-102246802D01*
X96420691Y-102241821D01*
X96402284Y-102235519D01*
X96383897Y-102227562D01*
X96340758Y-102220729D01*
X96329324Y-102218361D01*
X96287019Y-102207500D01*
X96266984Y-102207500D01*
X96247586Y-102205973D01*
X96240162Y-102204797D01*
X96227805Y-102202840D01*
X96227804Y-102202840D01*
X96194751Y-102205964D01*
X96184325Y-102206950D01*
X96172656Y-102207500D01*
X96081500Y-102207500D01*
X96019500Y-102190887D01*
X95974113Y-102145500D01*
X95957500Y-102083500D01*
X95957500Y-100961452D01*
X95966939Y-100913999D01*
X95993819Y-100873771D01*
X98102558Y-98765032D01*
X100216789Y-96650800D01*
X100232885Y-96637906D01*
X100234873Y-96635787D01*
X100234877Y-96635786D01*
X100280948Y-96586723D01*
X100283566Y-96584023D01*
X100303120Y-96564471D01*
X100305581Y-96561298D01*
X100313156Y-96552427D01*
X100343062Y-96520582D01*
X100352717Y-96503018D01*
X100363394Y-96486764D01*
X100375673Y-96470936D01*
X100393018Y-96430852D01*
X100398160Y-96420356D01*
X100419197Y-96382092D01*
X100424179Y-96362684D01*
X100430481Y-96344280D01*
X100438437Y-96325896D01*
X100445269Y-96282752D01*
X100447633Y-96271338D01*
X100458500Y-96229019D01*
X100458500Y-96208984D01*
X100460027Y-96189585D01*
X100460068Y-96189321D01*
X100463160Y-96169804D01*
X100459050Y-96126325D01*
X100458500Y-96114656D01*
X100458500Y-93134023D01*
X100466983Y-93088948D01*
X100491270Y-93050040D01*
X100588164Y-92944785D01*
X100724173Y-92736607D01*
X100824063Y-92508881D01*
X100839260Y-92448869D01*
X103948500Y-92448869D01*
X103954909Y-92508484D01*
X103980056Y-92575906D01*
X104005204Y-92643331D01*
X104091454Y-92758546D01*
X104206669Y-92844796D01*
X104341517Y-92895091D01*
X104401127Y-92901500D01*
X104549500Y-92901500D01*
X104611500Y-92918113D01*
X104656887Y-92963500D01*
X104673500Y-93025500D01*
X104673500Y-98406256D01*
X104671235Y-98426762D01*
X104673439Y-98496873D01*
X104673500Y-98500768D01*
X104673500Y-98528349D01*
X104674003Y-98532334D01*
X104674918Y-98543967D01*
X104676290Y-98587626D01*
X104681879Y-98606860D01*
X104685825Y-98625916D01*
X104688335Y-98645792D01*
X104704414Y-98686404D01*
X104708197Y-98697451D01*
X104720382Y-98739391D01*
X104730580Y-98756635D01*
X104739136Y-98774100D01*
X104746514Y-98792732D01*
X104746515Y-98792733D01*
X104772180Y-98828059D01*
X104778593Y-98837822D01*
X104800826Y-98875416D01*
X104800829Y-98875419D01*
X104800830Y-98875420D01*
X104814995Y-98889585D01*
X104827627Y-98904375D01*
X104839406Y-98920587D01*
X104873058Y-98948426D01*
X104881699Y-98956289D01*
X112682197Y-106756787D01*
X112695098Y-106772889D01*
X112697212Y-106774874D01*
X112697214Y-106774877D01*
X112744561Y-106819339D01*
X112746240Y-106820916D01*
X112749036Y-106823626D01*
X112768530Y-106843120D01*
X112771704Y-106845582D01*
X112780568Y-106853153D01*
X112812418Y-106883062D01*
X112822914Y-106888832D01*
X112829974Y-106892714D01*
X112846231Y-106903392D01*
X112862064Y-106915674D01*
X112878185Y-106922649D01*
X112902156Y-106933023D01*
X112912643Y-106938160D01*
X112950908Y-106959197D01*
X112970316Y-106964180D01*
X112988710Y-106970478D01*
X113007105Y-106978438D01*
X113050254Y-106985271D01*
X113061680Y-106987638D01*
X113069539Y-106989656D01*
X113103980Y-106998500D01*
X113103981Y-106998500D01*
X113124016Y-106998500D01*
X113143413Y-107000026D01*
X113163196Y-107003160D01*
X113206674Y-106999050D01*
X113218344Y-106998500D01*
X113361253Y-106998500D01*
X113411688Y-107009220D01*
X113453401Y-107039526D01*
X113459129Y-107045888D01*
X113612270Y-107157151D01*
X113612271Y-107157151D01*
X113612272Y-107157152D01*
X113785197Y-107234144D01*
X113970352Y-107273500D01*
X113970354Y-107273500D01*
X114159646Y-107273500D01*
X114159648Y-107273500D01*
X114328068Y-107237701D01*
X114344803Y-107234144D01*
X114517730Y-107157151D01*
X114670871Y-107045888D01*
X114797533Y-106905216D01*
X114892179Y-106741284D01*
X114950674Y-106561256D01*
X114970460Y-106373000D01*
X114950674Y-106184744D01*
X114915739Y-106077226D01*
X114892179Y-106004715D01*
X114797533Y-105840783D01*
X114670870Y-105700110D01*
X114517730Y-105588848D01*
X114344802Y-105511855D01*
X114159648Y-105472500D01*
X114159646Y-105472500D01*
X113970354Y-105472500D01*
X113970352Y-105472500D01*
X113785197Y-105511855D01*
X113612269Y-105588848D01*
X113507492Y-105664973D01*
X113454005Y-105687128D01*
X113396289Y-105682586D01*
X113346926Y-105652336D01*
X113162238Y-105467648D01*
X117244500Y-105467648D01*
X117283855Y-105652802D01*
X117360848Y-105825730D01*
X117472110Y-105978870D01*
X117612783Y-106105533D01*
X117776715Y-106200179D01*
X117863363Y-106228332D01*
X117956744Y-106258674D01*
X118097808Y-106273500D01*
X118192189Y-106273500D01*
X118192192Y-106273500D01*
X118333256Y-106258674D01*
X118513284Y-106200179D01*
X118677216Y-106105533D01*
X118817888Y-105978871D01*
X118929151Y-105825730D01*
X119006144Y-105652803D01*
X119036103Y-105511855D01*
X119045500Y-105467648D01*
X119045500Y-105278352D01*
X119006144Y-105093197D01*
X118929151Y-104920269D01*
X118817889Y-104767129D01*
X118677216Y-104640466D01*
X118513284Y-104545820D01*
X118333257Y-104487326D01*
X118297990Y-104483619D01*
X118192192Y-104472500D01*
X118097808Y-104472500D01*
X118013169Y-104481395D01*
X117956742Y-104487326D01*
X117776715Y-104545820D01*
X117612783Y-104640466D01*
X117472110Y-104767129D01*
X117360848Y-104920269D01*
X117283855Y-105093197D01*
X117244500Y-105278352D01*
X117244500Y-105467648D01*
X113162238Y-105467648D01*
X111402242Y-103707652D01*
X111397744Y-103700054D01*
X111390149Y-103695558D01*
X109705769Y-102011179D01*
X108286441Y-100591850D01*
X108281942Y-100584251D01*
X108274345Y-100579754D01*
X105960819Y-98266228D01*
X105933939Y-98226000D01*
X105924500Y-98178547D01*
X105924500Y-93025499D01*
X105941113Y-92963499D01*
X105986500Y-92918112D01*
X106048500Y-92901499D01*
X106196870Y-92901499D01*
X106196872Y-92901499D01*
X106256483Y-92895091D01*
X106391331Y-92844796D01*
X106506546Y-92758546D01*
X106592796Y-92643331D01*
X106641810Y-92511916D01*
X106676789Y-92461537D01*
X106731634Y-92434084D01*
X106792927Y-92436273D01*
X106845673Y-92467569D01*
X106967599Y-92589495D01*
X107161170Y-92725035D01*
X107375337Y-92824903D01*
X107603592Y-92886063D01*
X107839000Y-92906659D01*
X108074408Y-92886063D01*
X108090934Y-92881635D01*
X108127406Y-92871863D01*
X108183691Y-92870021D01*
X108234986Y-92893262D01*
X108270711Y-92936794D01*
X108283499Y-92991638D01*
X108283499Y-94048609D01*
X108283470Y-94048755D01*
X108283470Y-94192513D01*
X108312524Y-94375951D01*
X108307983Y-94433665D01*
X108277736Y-94483027D01*
X108228376Y-94513278D01*
X108082820Y-94560581D01*
X107917967Y-94644589D01*
X107768287Y-94753351D01*
X107637467Y-94884186D01*
X107528721Y-95033878D01*
X107444730Y-95198742D01*
X107387566Y-95374709D01*
X107358633Y-95557452D01*
X107358639Y-95647629D01*
X107358639Y-95797133D01*
X107358691Y-95797940D01*
X107358690Y-95839547D01*
X107358690Y-95842557D01*
X107387624Y-96025292D01*
X107444788Y-96201251D01*
X107528774Y-96366101D01*
X107637514Y-96515784D01*
X107768331Y-96646613D01*
X107918003Y-96755367D01*
X108082845Y-96839369D01*
X108129758Y-96854614D01*
X108197824Y-96876735D01*
X108242475Y-96902517D01*
X108272780Y-96944231D01*
X108283499Y-96994664D01*
X108283499Y-99934712D01*
X108282438Y-99950898D01*
X108278316Y-99982199D01*
X108283499Y-100021559D01*
X108283499Y-100021560D01*
X108298955Y-100138961D01*
X108359462Y-100285039D01*
X108381859Y-100314228D01*
X108455717Y-100410481D01*
X108480771Y-100429705D01*
X108492963Y-100440398D01*
X111541603Y-103489039D01*
X111552297Y-103501233D01*
X111554969Y-103504715D01*
X111571519Y-103526283D01*
X111603013Y-103550449D01*
X111603015Y-103550451D01*
X111696960Y-103622537D01*
X111843039Y-103683045D01*
X111968499Y-103699562D01*
X111999800Y-103703683D01*
X111999800Y-103703682D01*
X111999801Y-103703683D01*
X112031103Y-103699561D01*
X112047288Y-103698501D01*
X112989904Y-103698501D01*
X113037357Y-103707940D01*
X113077585Y-103734820D01*
X113123065Y-103780300D01*
X113152269Y-103826583D01*
X113156255Y-103860241D01*
X113158178Y-103860039D01*
X113159540Y-103872999D01*
X113159540Y-103873000D01*
X113170313Y-103975501D01*
X113179326Y-104061257D01*
X113237820Y-104241284D01*
X113332466Y-104405216D01*
X113459129Y-104545889D01*
X113612269Y-104657151D01*
X113785197Y-104734144D01*
X113970352Y-104773500D01*
X113970354Y-104773500D01*
X114159646Y-104773500D01*
X114159648Y-104773500D01*
X114283084Y-104747262D01*
X114344803Y-104734144D01*
X114517730Y-104657151D01*
X114670871Y-104545888D01*
X114797533Y-104405216D01*
X114892179Y-104241284D01*
X114950674Y-104061256D01*
X114970460Y-103873000D01*
X114950674Y-103684744D01*
X114909061Y-103556672D01*
X114892179Y-103504715D01*
X114797533Y-103340783D01*
X114670870Y-103200110D01*
X114517730Y-103088848D01*
X114344803Y-103011855D01*
X114262162Y-102994289D01*
X114203059Y-102963390D01*
X114168512Y-102906344D01*
X114168512Y-102839652D01*
X114203061Y-102782606D01*
X114262161Y-102751709D01*
X114344803Y-102734144D01*
X114344804Y-102734143D01*
X114344806Y-102734143D01*
X114517730Y-102657151D01*
X114670870Y-102545889D01*
X114797533Y-102405216D01*
X114892179Y-102241284D01*
X114947258Y-102071768D01*
X114950674Y-102061256D01*
X114970460Y-101873000D01*
X114950674Y-101684744D01*
X114892179Y-101504716D01*
X114892179Y-101504715D01*
X114797533Y-101340783D01*
X114670870Y-101200110D01*
X114517730Y-101088848D01*
X114344802Y-101011855D01*
X114159648Y-100972500D01*
X114159646Y-100972500D01*
X113970354Y-100972500D01*
X113970352Y-100972500D01*
X113785197Y-101011855D01*
X113612269Y-101088848D01*
X113459129Y-101200110D01*
X113332466Y-101340783D01*
X113237820Y-101504715D01*
X113179326Y-101684742D01*
X113158178Y-101885961D01*
X113156255Y-101885758D01*
X113152271Y-101919412D01*
X113123066Y-101965697D01*
X113077585Y-102011179D01*
X113037356Y-102038060D01*
X112989903Y-102047499D01*
X112486296Y-102047499D01*
X112438843Y-102038060D01*
X112398615Y-102011180D01*
X110855083Y-100467648D01*
X117244500Y-100467648D01*
X117283855Y-100652802D01*
X117360848Y-100825730D01*
X117472110Y-100978870D01*
X117612783Y-101105533D01*
X117776715Y-101200179D01*
X117863363Y-101228332D01*
X117956744Y-101258674D01*
X118097808Y-101273500D01*
X118192189Y-101273500D01*
X118192192Y-101273500D01*
X118333256Y-101258674D01*
X118513284Y-101200179D01*
X118677216Y-101105533D01*
X118817888Y-100978871D01*
X118929151Y-100825730D01*
X119006144Y-100652803D01*
X119043915Y-100475104D01*
X119045500Y-100467648D01*
X119045500Y-100278352D01*
X119006144Y-100093197D01*
X118929151Y-99920269D01*
X118817889Y-99767129D01*
X118677216Y-99640466D01*
X118513284Y-99545820D01*
X118333257Y-99487326D01*
X118297989Y-99483619D01*
X118192192Y-99472500D01*
X118097808Y-99472500D01*
X118013169Y-99481395D01*
X117956742Y-99487326D01*
X117776715Y-99545820D01*
X117612783Y-99640466D01*
X117472110Y-99767129D01*
X117360848Y-99920269D01*
X117283855Y-100093197D01*
X117244500Y-100278352D01*
X117244500Y-100467648D01*
X110855083Y-100467648D01*
X109970820Y-99583385D01*
X109943940Y-99543157D01*
X109934501Y-99495704D01*
X109934501Y-96402167D01*
X109934498Y-96402129D01*
X109934500Y-96382092D01*
X109934501Y-96357457D01*
X109932413Y-96344272D01*
X109912990Y-96221598D01*
X109917534Y-96163886D01*
X109947782Y-96114526D01*
X109997138Y-96084278D01*
X110135177Y-96039419D01*
X110300027Y-95955413D01*
X110449706Y-95846653D01*
X110580529Y-95715818D01*
X110689274Y-95566127D01*
X110773264Y-95401269D01*
X110830430Y-95225301D01*
X110859365Y-95042557D01*
X110859361Y-94950047D01*
X110859361Y-94949949D01*
X110859361Y-94888013D01*
X110859366Y-94887964D01*
X110859365Y-94872731D01*
X110859366Y-94872728D01*
X110859364Y-94851188D01*
X110859374Y-94851138D01*
X110859371Y-94799814D01*
X110859372Y-94799814D01*
X110859366Y-94707310D01*
X110830413Y-94524581D01*
X110773234Y-94348630D01*
X110689236Y-94183790D01*
X110591124Y-94048755D01*
X110580486Y-94034114D01*
X110449668Y-93903300D01*
X110449666Y-93903298D01*
X110299991Y-93794552D01*
X110299992Y-93794552D01*
X110299990Y-93794551D01*
X110135147Y-93710556D01*
X110083967Y-93693925D01*
X110020178Y-93673197D01*
X109975527Y-93647416D01*
X109945221Y-93605702D01*
X109934501Y-93555268D01*
X109934501Y-92991638D01*
X109947289Y-92936794D01*
X109983014Y-92893262D01*
X110034309Y-92870021D01*
X110090594Y-92871863D01*
X110143591Y-92886062D01*
X110143592Y-92886063D01*
X110379000Y-92906659D01*
X110614408Y-92886063D01*
X110842663Y-92824903D01*
X111056830Y-92725035D01*
X111250401Y-92589495D01*
X111417495Y-92422401D01*
X111547732Y-92236402D01*
X111592048Y-92197539D01*
X111649305Y-92183528D01*
X111706562Y-92197539D01*
X111750880Y-92236404D01*
X111880893Y-92422081D01*
X112047918Y-92589106D01*
X112241423Y-92724600D01*
X112455507Y-92824430D01*
X112668999Y-92881635D01*
X112669000Y-92881636D01*
X112669000Y-91801000D01*
X113169000Y-91801000D01*
X113169000Y-92881635D01*
X113382492Y-92824430D01*
X113596576Y-92724600D01*
X113790081Y-92589106D01*
X113957106Y-92422081D01*
X114092600Y-92228576D01*
X114192430Y-92014492D01*
X114249636Y-91801000D01*
X113169000Y-91801000D01*
X112669000Y-91801000D01*
X112669000Y-90220364D01*
X113169000Y-90220364D01*
X113169000Y-91301000D01*
X114249636Y-91301000D01*
X114249635Y-91300999D01*
X114192430Y-91087507D01*
X114092599Y-90873421D01*
X113957109Y-90679921D01*
X113790081Y-90512893D01*
X113596576Y-90377399D01*
X113382492Y-90277569D01*
X113169000Y-90220364D01*
X112669000Y-90220364D01*
X112668999Y-90220364D01*
X112455507Y-90277569D01*
X112241421Y-90377400D01*
X112047921Y-90512890D01*
X111880893Y-90679918D01*
X111750880Y-90865596D01*
X111706562Y-90904461D01*
X111649305Y-90918472D01*
X111592048Y-90904461D01*
X111547730Y-90865595D01*
X111417494Y-90679598D01*
X111250404Y-90512508D01*
X111250401Y-90512505D01*
X111056830Y-90376965D01*
X110842663Y-90277097D01*
X110781502Y-90260709D01*
X110614407Y-90215936D01*
X110379000Y-90195340D01*
X110143592Y-90215936D01*
X109915336Y-90277097D01*
X109701170Y-90376965D01*
X109507598Y-90512505D01*
X109340505Y-90679598D01*
X109210575Y-90865159D01*
X109166257Y-90904025D01*
X109109000Y-90918036D01*
X109051743Y-90904025D01*
X109007425Y-90865159D01*
X108877494Y-90679598D01*
X108710404Y-90512508D01*
X108710401Y-90512505D01*
X108516830Y-90376965D01*
X108302663Y-90277097D01*
X108241502Y-90260709D01*
X108074407Y-90215936D01*
X107839000Y-90195340D01*
X107603592Y-90215936D01*
X107375336Y-90277097D01*
X107161170Y-90376965D01*
X106967601Y-90512503D01*
X106845673Y-90634431D01*
X106792926Y-90665726D01*
X106731634Y-90667915D01*
X106676789Y-90640462D01*
X106641810Y-90590082D01*
X106613019Y-90512890D01*
X106592796Y-90458669D01*
X106506546Y-90343454D01*
X106391331Y-90257204D01*
X106256483Y-90206909D01*
X106196873Y-90200500D01*
X106196869Y-90200500D01*
X104401130Y-90200500D01*
X104341515Y-90206909D01*
X104206669Y-90257204D01*
X104091454Y-90343454D01*
X104005204Y-90458668D01*
X103982515Y-90519500D01*
X103954909Y-90593517D01*
X103949786Y-90641172D01*
X103948500Y-90653130D01*
X103948500Y-92448869D01*
X100839260Y-92448869D01*
X100885108Y-92267821D01*
X100905643Y-92020000D01*
X100885108Y-91772179D01*
X100824063Y-91531119D01*
X100724173Y-91303393D01*
X100588164Y-91095215D01*
X100419744Y-90912262D01*
X100359788Y-90865596D01*
X100223514Y-90759529D01*
X100223510Y-90759526D01*
X100223509Y-90759526D01*
X100004810Y-90641172D01*
X100004806Y-90641170D01*
X100004805Y-90641170D01*
X99769615Y-90560429D01*
X99524335Y-90519500D01*
X99275665Y-90519500D01*
X99030384Y-90560429D01*
X98795194Y-90641170D01*
X98576485Y-90759529D01*
X98380259Y-90912259D01*
X98380256Y-90912261D01*
X98380256Y-90912262D01*
X98330956Y-90965816D01*
X98211837Y-91095214D01*
X98075825Y-91303395D01*
X97985780Y-91508678D01*
X97975937Y-91531119D01*
X97914892Y-91772179D01*
X97914891Y-91772183D01*
X97894356Y-92020000D01*
X97914891Y-92267816D01*
X97914891Y-92267819D01*
X97914892Y-92267821D01*
X97975937Y-92508881D01*
X97977269Y-92511917D01*
X98075825Y-92736604D01*
X98075827Y-92736607D01*
X98211836Y-92944785D01*
X98380256Y-93127738D01*
X98380259Y-93127740D01*
X98576485Y-93280470D01*
X98576487Y-93280471D01*
X98576491Y-93280474D01*
X98795190Y-93398828D01*
X99030386Y-93479571D01*
X99081249Y-93488058D01*
X99103909Y-93491840D01*
X99156937Y-93514234D01*
X99194139Y-93558159D01*
X99207500Y-93614149D01*
X99207500Y-95839547D01*
X99198061Y-95887000D01*
X99171181Y-95927228D01*
X94948208Y-100150199D01*
X94932110Y-100163096D01*
X94884096Y-100214225D01*
X94881391Y-100217017D01*
X94861874Y-100236534D01*
X94859415Y-100239705D01*
X94851842Y-100248572D01*
X94821935Y-100280420D01*
X94812285Y-100297974D01*
X94801609Y-100314228D01*
X94789326Y-100330063D01*
X94771975Y-100370158D01*
X94766838Y-100380644D01*
X94745802Y-100418907D01*
X94740821Y-100438309D01*
X94734520Y-100456711D01*
X94726561Y-100475102D01*
X94719728Y-100518242D01*
X94717360Y-100529674D01*
X94706500Y-100571978D01*
X94706500Y-100592016D01*
X94704973Y-100611413D01*
X94701840Y-100631196D01*
X94705390Y-100668751D01*
X94705950Y-100674675D01*
X94706500Y-100686344D01*
X94706500Y-102134313D01*
X94698264Y-102178751D01*
X94674652Y-102217282D01*
X94658232Y-102235519D01*
X94599464Y-102300786D01*
X94504820Y-102464715D01*
X94446326Y-102644742D01*
X94426540Y-102833000D01*
X94446326Y-103021257D01*
X94504820Y-103201284D01*
X94596975Y-103360901D01*
X94613512Y-103427228D01*
X94592389Y-103492240D01*
X94540025Y-103536180D01*
X94472268Y-103566348D01*
X94319129Y-103677609D01*
X94192466Y-103818282D01*
X94097820Y-103982214D01*
X94039326Y-104162241D01*
X94019540Y-104350498D01*
X86368430Y-104350498D01*
X86359189Y-102362000D01*
X92028033Y-102362000D01*
X92047812Y-102512235D01*
X92102699Y-102644742D01*
X92105802Y-102652233D01*
X92198049Y-102772451D01*
X92318267Y-102864698D01*
X92418809Y-102906344D01*
X92458264Y-102922687D01*
X92570779Y-102937500D01*
X92570780Y-102937500D01*
X92646220Y-102937500D01*
X92646221Y-102937500D01*
X92702477Y-102930093D01*
X92758736Y-102922687D01*
X92898733Y-102864698D01*
X93018951Y-102772451D01*
X93111198Y-102652233D01*
X93169187Y-102512236D01*
X93188966Y-102362000D01*
X93169187Y-102211764D01*
X93111198Y-102071767D01*
X93018951Y-101951549D01*
X92898733Y-101859302D01*
X92898731Y-101859301D01*
X92758735Y-101801312D01*
X92646221Y-101786500D01*
X92646220Y-101786500D01*
X92570780Y-101786500D01*
X92570779Y-101786500D01*
X92458264Y-101801312D01*
X92318268Y-101859301D01*
X92198049Y-101951549D01*
X92105801Y-102071768D01*
X92047812Y-102211764D01*
X92028033Y-102362000D01*
X86359189Y-102362000D01*
X86339917Y-98215159D01*
X86354341Y-98156538D01*
X86394738Y-98111674D01*
X86451533Y-98091204D01*
X86511263Y-98099979D01*
X86559770Y-98135920D01*
X86648707Y-98244292D01*
X86804784Y-98372379D01*
X86982848Y-98467557D01*
X87176067Y-98526170D01*
X87326639Y-98541000D01*
X87552000Y-98541000D01*
X87552000Y-97766000D01*
X88052000Y-97766000D01*
X88052000Y-98541000D01*
X88277361Y-98541000D01*
X88427932Y-98526170D01*
X88621151Y-98467557D01*
X88799215Y-98372379D01*
X88955292Y-98244292D01*
X89083379Y-98088215D01*
X89178558Y-97910150D01*
X89222285Y-97766000D01*
X88052000Y-97766000D01*
X87552000Y-97766000D01*
X87552000Y-96491000D01*
X88052000Y-96491000D01*
X88052000Y-97266000D01*
X89222285Y-97266000D01*
X89178558Y-97121849D01*
X89083379Y-96943784D01*
X88955292Y-96787707D01*
X88799215Y-96659620D01*
X88621151Y-96564442D01*
X88427932Y-96505829D01*
X88277361Y-96491000D01*
X88052000Y-96491000D01*
X87552000Y-96491000D01*
X87326639Y-96491000D01*
X87176067Y-96505829D01*
X86982848Y-96564442D01*
X86804784Y-96659620D01*
X86648707Y-96787707D01*
X86553313Y-96903947D01*
X86505019Y-96939800D01*
X86445535Y-96948708D01*
X86388856Y-96928577D01*
X86348319Y-96884142D01*
X86333460Y-96825859D01*
X86333283Y-96787707D01*
X86306498Y-91024436D01*
X86320922Y-90965816D01*
X86361319Y-90920952D01*
X86418114Y-90900482D01*
X86477844Y-90909257D01*
X86526351Y-90945198D01*
X86648707Y-91094292D01*
X86804784Y-91222379D01*
X86982848Y-91317557D01*
X87176067Y-91376170D01*
X87326639Y-91391000D01*
X87552000Y-91391000D01*
X87552000Y-90616000D01*
X88052000Y-90616000D01*
X88052000Y-91391000D01*
X88277361Y-91391000D01*
X88427932Y-91376170D01*
X88621151Y-91317557D01*
X88799215Y-91222379D01*
X88955292Y-91094292D01*
X89083379Y-90938215D01*
X89178558Y-90760150D01*
X89222285Y-90616000D01*
X88052000Y-90616000D01*
X87552000Y-90616000D01*
X87552000Y-90240000D01*
X87568613Y-90178000D01*
X87614000Y-90132613D01*
X87676000Y-90116000D01*
X89222285Y-90116000D01*
X89178558Y-89971849D01*
X89083379Y-89793784D01*
X88955290Y-89637705D01*
X88948268Y-89631942D01*
X88912369Y-89583532D01*
X88903533Y-89523915D01*
X88923849Y-89467174D01*
X88968516Y-89426713D01*
X89026979Y-89412091D01*
X123681611Y-89425950D01*
G37*
%TD.AperFunction*%
%TD*%
M02*
