%TF.GenerationSoftware,KiCad,Pcbnew,7.0.1*%
%TF.CreationDate,2024-02-20T00:17:48-05:00*%
%TF.ProjectId,usb test board,75736220-7465-4737-9420-626f6172642e,rev?*%
%TF.SameCoordinates,Original*%
%TF.FileFunction,Soldermask,Top*%
%TF.FilePolarity,Negative*%
%FSLAX46Y46*%
G04 Gerber Fmt 4.6, Leading zero omitted, Abs format (unit mm)*
G04 Created by KiCad (PCBNEW 7.0.1) date 2024-02-20 00:17:48*
%MOMM*%
%LPD*%
G01*
G04 APERTURE LIST*
G04 Aperture macros list*
%AMRoundRect*
0 Rectangle with rounded corners*
0 $1 Rounding radius*
0 $2 $3 $4 $5 $6 $7 $8 $9 X,Y pos of 4 corners*
0 Add a 4 corners polygon primitive as box body*
4,1,4,$2,$3,$4,$5,$6,$7,$8,$9,$2,$3,0*
0 Add four circle primitives for the rounded corners*
1,1,$1+$1,$2,$3*
1,1,$1+$1,$4,$5*
1,1,$1+$1,$6,$7*
1,1,$1+$1,$8,$9*
0 Add four rect primitives between the rounded corners*
20,1,$1+$1,$2,$3,$4,$5,0*
20,1,$1+$1,$4,$5,$6,$7,0*
20,1,$1+$1,$6,$7,$8,$9,0*
20,1,$1+$1,$8,$9,$2,$3,0*%
G04 Aperture macros list end*
%ADD10R,4.000000X4.000000*%
%ADD11RoundRect,0.250000X0.625000X-0.400000X0.625000X0.400000X-0.625000X0.400000X-0.625000X-0.400000X0*%
%ADD12C,2.000000*%
%ADD13C,1.300000*%
%ADD14RoundRect,0.102000X1.250000X0.450000X-1.250000X0.450000X-1.250000X-0.450000X1.250000X-0.450000X0*%
%ADD15RoundRect,0.102000X2.575000X1.250000X-2.575000X1.250000X-2.575000X-1.250000X2.575000X-1.250000X0*%
%ADD16R,1.700000X1.700000*%
%ADD17O,1.700000X1.700000*%
%ADD18RoundRect,0.250001X-0.624999X0.462499X-0.624999X-0.462499X0.624999X-0.462499X0.624999X0.462499X0*%
%ADD19R,1.400000X0.400000*%
%ADD20O,1.900000X1.050000*%
%ADD21R,1.450000X1.150000*%
%ADD22R,1.900000X1.750000*%
%ADD23C,0.650000*%
%ADD24RoundRect,0.102000X-0.575000X0.300000X-0.575000X-0.300000X0.575000X-0.300000X0.575000X0.300000X0*%
%ADD25RoundRect,0.102000X-0.575000X0.150000X-0.575000X-0.150000X0.575000X-0.150000X0.575000X0.150000X0*%
%ADD26RoundRect,0.102000X-1.000000X1.090000X-1.000000X-1.090000X1.000000X-1.090000X1.000000X1.090000X0*%
G04 APERTURE END LIST*
D10*
%TO.C,TP1*%
X99833000Y-92464000D03*
%TD*%
D11*
%TO.C,R1*%
X107418000Y-110596000D03*
X107418000Y-107496000D03*
%TD*%
D12*
%TO.C,J3*%
X99400000Y-92020000D03*
%TD*%
D10*
%TO.C,TP2*%
X99801000Y-109031000D03*
%TD*%
D12*
%TO.C,J4*%
X99350000Y-109480000D03*
%TD*%
D13*
%TO.C,J2*%
X118145000Y-105373000D03*
X118145000Y-100373000D03*
D14*
X114065000Y-106373000D03*
X114065000Y-103873000D03*
X114065000Y-101873000D03*
X114065000Y-99373000D03*
D15*
X116440000Y-110123000D03*
X116440000Y-95623000D03*
%TD*%
D16*
%TO.C,J1*%
X105299000Y-91551000D03*
D17*
X107839000Y-91551000D03*
X110379000Y-91551000D03*
X112919000Y-91551000D03*
%TD*%
D18*
%TO.C,D1*%
X104649000Y-107591500D03*
X104649000Y-110566500D03*
%TD*%
D19*
%TO.C,J6*%
X90452000Y-92641000D03*
X90452000Y-93291000D03*
X90452000Y-93941000D03*
X90452000Y-94591000D03*
X90452000Y-95241000D03*
D20*
X87802000Y-90366000D03*
D21*
X90032000Y-91621000D03*
D22*
X87802000Y-92816000D03*
X87802000Y-95066000D03*
D21*
X90032000Y-96261000D03*
D20*
X87802000Y-97516000D03*
%TD*%
D23*
%TO.C,J5*%
X92608500Y-102362000D03*
X92608500Y-108142000D03*
D24*
X93683500Y-102052000D03*
X93683500Y-102852000D03*
D25*
X93683500Y-104002000D03*
X93683500Y-105002000D03*
X93683500Y-105502000D03*
X93683500Y-106502000D03*
D24*
X93683500Y-108452000D03*
X93683500Y-107652000D03*
D25*
X93683500Y-107002000D03*
X93683500Y-106002000D03*
X93683500Y-104502000D03*
X93683500Y-103502000D03*
D26*
X93108500Y-100142000D03*
X93108500Y-110362000D03*
X89178500Y-100142000D03*
X89178500Y-110362000D03*
%TD*%
M02*
