%TF.GenerationSoftware,KiCad,Pcbnew,7.0.1*%
%TF.CreationDate,2024-02-20T00:17:48-05:00*%
%TF.ProjectId,usb test board,75736220-7465-4737-9420-626f6172642e,rev?*%
%TF.SameCoordinates,Original*%
%TF.FileFunction,Copper,L1,Top*%
%TF.FilePolarity,Positive*%
%FSLAX46Y46*%
G04 Gerber Fmt 4.6, Leading zero omitted, Abs format (unit mm)*
G04 Created by KiCad (PCBNEW 7.0.1) date 2024-02-20 00:17:48*
%MOMM*%
%LPD*%
G01*
G04 APERTURE LIST*
G04 Aperture macros list*
%AMRoundRect*
0 Rectangle with rounded corners*
0 $1 Rounding radius*
0 $2 $3 $4 $5 $6 $7 $8 $9 X,Y pos of 4 corners*
0 Add a 4 corners polygon primitive as box body*
4,1,4,$2,$3,$4,$5,$6,$7,$8,$9,$2,$3,0*
0 Add four circle primitives for the rounded corners*
1,1,$1+$1,$2,$3*
1,1,$1+$1,$4,$5*
1,1,$1+$1,$6,$7*
1,1,$1+$1,$8,$9*
0 Add four rect primitives between the rounded corners*
20,1,$1+$1,$2,$3,$4,$5,0*
20,1,$1+$1,$4,$5,$6,$7,0*
20,1,$1+$1,$6,$7,$8,$9,0*
20,1,$1+$1,$8,$9,$2,$3,0*%
G04 Aperture macros list end*
%TA.AperFunction,SMDPad,CuDef*%
%ADD10R,4.000000X4.000000*%
%TD*%
%TA.AperFunction,SMDPad,CuDef*%
%ADD11RoundRect,0.250000X0.625000X-0.400000X0.625000X0.400000X-0.625000X0.400000X-0.625000X-0.400000X0*%
%TD*%
%TA.AperFunction,ComponentPad*%
%ADD12C,2.000000*%
%TD*%
%TA.AperFunction,SMDPad,CuDef*%
%ADD13R,2.500000X0.900000*%
%TD*%
%TA.AperFunction,SMDPad,CuDef*%
%ADD14R,5.150000X2.500000*%
%TD*%
%TA.AperFunction,ComponentPad*%
%ADD15R,1.700000X1.700000*%
%TD*%
%TA.AperFunction,ComponentPad*%
%ADD16O,1.700000X1.700000*%
%TD*%
%TA.AperFunction,SMDPad,CuDef*%
%ADD17RoundRect,0.250001X-0.624999X0.462499X-0.624999X-0.462499X0.624999X-0.462499X0.624999X0.462499X0*%
%TD*%
%TA.AperFunction,SMDPad,CuDef*%
%ADD18R,1.400000X0.400000*%
%TD*%
%TA.AperFunction,ComponentPad*%
%ADD19O,1.900000X1.050000*%
%TD*%
%TA.AperFunction,SMDPad,CuDef*%
%ADD20R,1.450000X1.150000*%
%TD*%
%TA.AperFunction,SMDPad,CuDef*%
%ADD21R,1.900000X1.750000*%
%TD*%
%TA.AperFunction,SMDPad,CuDef*%
%ADD22R,1.150000X0.600000*%
%TD*%
%TA.AperFunction,SMDPad,CuDef*%
%ADD23R,1.150000X0.300000*%
%TD*%
%TA.AperFunction,SMDPad,CuDef*%
%ADD24R,2.000000X2.180000*%
%TD*%
%TA.AperFunction,ViaPad*%
%ADD25C,0.800000*%
%TD*%
%TA.AperFunction,Conductor*%
%ADD26C,0.200000*%
%TD*%
%TA.AperFunction,Conductor*%
%ADD27C,0.250000*%
%TD*%
G04 APERTURE END LIST*
D10*
%TO.P,TP1,1,1*%
%TO.N,/VCC_5V*%
X99833000Y-92464000D03*
%TD*%
D11*
%TO.P,R1,1*%
%TO.N,GND*%
X107418000Y-110596000D03*
%TO.P,R1,2*%
%TO.N,Net-(D1-K)*%
X107418000Y-107496000D03*
%TD*%
D12*
%TO.P,J3,1,Pin_1*%
%TO.N,/VCC_5V*%
X99400000Y-92020000D03*
%TD*%
D10*
%TO.P,TP2,1,1*%
%TO.N,/5V*%
X99801000Y-109031000D03*
%TD*%
D12*
%TO.P,J4,1,Pin_1*%
%TO.N,/5V*%
X99350000Y-109480000D03*
%TD*%
D13*
%TO.P,J2,1,1*%
%TO.N,/5V*%
X114065000Y-106373000D03*
%TO.P,J2,2,2*%
%TO.N,/DN*%
X114065000Y-103873000D03*
%TO.P,J2,3,3*%
%TO.N,/DP*%
X114065000Y-101873000D03*
%TO.P,J2,4,4*%
%TO.N,GND*%
X114065000Y-99373000D03*
D14*
%TO.P,J2,SH1,SHIELD*%
X116440000Y-110123000D03*
%TO.P,J2,SH2,SHIELD*%
X116440000Y-95623000D03*
%TD*%
D15*
%TO.P,J1,1,Pin_1*%
%TO.N,/5V*%
X105299000Y-91551000D03*
D16*
%TO.P,J1,2,Pin_2*%
%TO.N,/DN*%
X107839000Y-91551000D03*
%TO.P,J1,3,Pin_3*%
%TO.N,/DP*%
X110379000Y-91551000D03*
%TO.P,J1,4,Pin_4*%
%TO.N,GND*%
X112919000Y-91551000D03*
%TD*%
D17*
%TO.P,D1,1,K*%
%TO.N,Net-(D1-K)*%
X104649000Y-107591500D03*
%TO.P,D1,2,A*%
%TO.N,/5V*%
X104649000Y-110566500D03*
%TD*%
D18*
%TO.P,J6,1,VBUS*%
%TO.N,/VCC_5V*%
X90452000Y-92641000D03*
%TO.P,J6,2,D-*%
%TO.N,/DN*%
X90452000Y-93291000D03*
%TO.P,J6,3,D+*%
%TO.N,/DP*%
X90452000Y-93941000D03*
%TO.P,J6,4,ID*%
%TO.N,unconnected-(J6-ID-Pad4)*%
X90452000Y-94591000D03*
%TO.P,J6,5,GND*%
%TO.N,GND*%
X90452000Y-95241000D03*
D19*
%TO.P,J6,6,Shield*%
X87802000Y-90366000D03*
D20*
X90032000Y-91621000D03*
D21*
X87802000Y-92816000D03*
X87802000Y-95066000D03*
D20*
X90032000Y-96261000D03*
D19*
X87802000Y-97516000D03*
%TD*%
D22*
%TO.P,J5,A1/B12,GND*%
%TO.N,GND*%
X93683500Y-102052000D03*
%TO.P,J5,A4/B9,VBUS*%
%TO.N,/VCC_5V*%
X93683500Y-102852000D03*
D23*
%TO.P,J5,A5,CC1*%
%TO.N,unconnected-(J5-CC1-PadA5)*%
X93683500Y-104002000D03*
%TO.P,J5,A6,DP1*%
%TO.N,/DP*%
X93683500Y-105002000D03*
%TO.P,J5,A7,DN1*%
%TO.N,/DN*%
X93683500Y-105502000D03*
%TO.P,J5,A8,SBU1*%
%TO.N,unconnected-(J5-SBU1-PadA8)*%
X93683500Y-106502000D03*
D22*
%TO.P,J5,B1/A12,GND*%
%TO.N,GND*%
X93683500Y-108452000D03*
%TO.P,J5,B4/A9,VBUS*%
%TO.N,/VCC_5V*%
X93683500Y-107652000D03*
D23*
%TO.P,J5,B5,CC2*%
%TO.N,unconnected-(J5-CC2-PadB5)*%
X93683500Y-107002000D03*
%TO.P,J5,B6,DP2*%
%TO.N,/DP*%
X93683500Y-106002000D03*
%TO.P,J5,B7,DN2*%
%TO.N,/DN*%
X93683500Y-104502000D03*
%TO.P,J5,B8,SBU2*%
%TO.N,unconnected-(J5-SBU2-PadB8)*%
X93683500Y-103502000D03*
D24*
%TO.P,J5,S1,GND*%
%TO.N,GND*%
X93108500Y-100142000D03*
%TO.P,J5,S2,GND*%
X93108500Y-110362000D03*
%TO.P,J5,S3,GND*%
X89178500Y-100142000D03*
%TO.P,J5,S4,GND*%
X89178500Y-110362000D03*
%TD*%
D25*
%TO.N,/DN*%
X114065000Y-103873000D03*
X95400000Y-104350999D03*
X95615942Y-105657977D03*
%TO.N,/DP*%
X95141976Y-106480723D03*
X96300500Y-105000001D03*
%TO.N,GND*%
X104165000Y-99196000D03*
X122972000Y-92261000D03*
X105321000Y-105071000D03*
X123044000Y-94091000D03*
X121671000Y-111260000D03*
X117024000Y-90166000D03*
X122948000Y-97992000D03*
X87189000Y-100039000D03*
X93956000Y-97221000D03*
X121984000Y-90214000D03*
X109800000Y-105071000D03*
X98218000Y-99123000D03*
X87285000Y-101748000D03*
X122972000Y-104758000D03*
X102359000Y-99172000D03*
X122996000Y-102687000D03*
X96250000Y-109425000D03*
X93739000Y-90190000D03*
X123020000Y-100327000D03*
X119769000Y-90190000D03*
X102359000Y-96378000D03*
X95737000Y-90262000D03*
X87261000Y-103530000D03*
X122948000Y-110489000D03*
X93932000Y-95825000D03*
X87189000Y-108394000D03*
X96243000Y-111139000D03*
X110113000Y-111236000D03*
X87021000Y-111091000D03*
X100385000Y-99148000D03*
X123020000Y-95752000D03*
X122924000Y-108033000D03*
X114065000Y-99373000D03*
X112040000Y-111212000D03*
X100650000Y-105023000D03*
X87165000Y-106058000D03*
%TO.N,/5V*%
X114065000Y-106373000D03*
%TO.N,/VCC_5V*%
X95332000Y-102833000D03*
X96250000Y-107750000D03*
%TO.N,/DP*%
X114065000Y-101873000D03*
%TD*%
D26*
%TO.N,/DN*%
X94602952Y-105657977D02*
X95615942Y-105657977D01*
X94546975Y-105602000D02*
X94602952Y-105657977D01*
X93063826Y-105602000D02*
X94546975Y-105602000D01*
X93075000Y-96418200D02*
X91059008Y-98434192D01*
X93075000Y-93956800D02*
X93075000Y-96418200D01*
X91059008Y-98434192D02*
X91059008Y-103597182D01*
X92509200Y-93391000D02*
X93075000Y-93956800D01*
X91602001Y-93391000D02*
X92509200Y-93391000D01*
X91502001Y-93291000D02*
X91602001Y-93391000D01*
X90452000Y-93291000D02*
X91502001Y-93291000D01*
X91059008Y-103597182D02*
X93063826Y-105602000D01*
%TO.N,/DP*%
X91502001Y-93941000D02*
X90452000Y-93941000D01*
X91602001Y-93841000D02*
X91502001Y-93941000D01*
X92322800Y-93841000D02*
X91602001Y-93841000D01*
X92625000Y-94143200D02*
X92322800Y-93841000D01*
X92625000Y-96231800D02*
X92625000Y-94143200D01*
X90609008Y-98247792D02*
X92625000Y-96231800D01*
X90609008Y-103152208D02*
X90609008Y-98247792D01*
X90609017Y-103783560D02*
X90609017Y-103152217D01*
X90609017Y-103152217D02*
X90609008Y-103152208D01*
X94452000Y-106002000D02*
X92827457Y-106002000D01*
X92827457Y-106002000D02*
X90609017Y-103783560D01*
X95141976Y-106480723D02*
X94930723Y-106480723D01*
X94930723Y-106480723D02*
X94452000Y-106002000D01*
%TO.N,/DN*%
X109175000Y-103098001D02*
X113290001Y-103098001D01*
X108549998Y-102086155D02*
X108549998Y-102472999D01*
X108199998Y-102472999D02*
X108199998Y-102086155D01*
X108199998Y-103659845D02*
X108199998Y-102472999D01*
X106949994Y-102086155D02*
X106949994Y-103098001D01*
X106599994Y-102472999D02*
X106599994Y-102086155D01*
X105060000Y-103098001D02*
X105710000Y-103098001D01*
X104760000Y-103652980D02*
X104760000Y-103398001D01*
X103560000Y-103652955D02*
X103560000Y-103398001D01*
X102960000Y-103398001D02*
X102960000Y-103652955D01*
X101760000Y-103398001D02*
X101760000Y-103652980D01*
X101160000Y-103652980D02*
X101160000Y-103398001D01*
X100560000Y-103398001D02*
X100560000Y-103652980D01*
X99829801Y-103098001D02*
X100260000Y-103098001D01*
X92218200Y-98425000D02*
X95156800Y-98425000D01*
X91858508Y-98784692D02*
X92218200Y-98425000D01*
X91858508Y-103255455D02*
X91858508Y-98784692D01*
X93103053Y-104500000D02*
X91858508Y-103255455D01*
X108549999Y-102472999D02*
G75*
G03*
X109175000Y-103098001I625001J-1D01*
G01*
X108550045Y-102086155D02*
G75*
G03*
X108374998Y-101911155I-175045J-45D01*
G01*
X106949994Y-103098001D02*
X106949994Y-103659845D01*
X108374998Y-101911198D02*
G75*
G03*
X108199998Y-102086155I2J-175002D01*
G01*
X95049001Y-104350999D02*
X94900000Y-104500000D01*
X107574996Y-104284798D02*
G75*
G03*
X108199998Y-103659845I4J624998D01*
G01*
X106949953Y-103659845D02*
G75*
G03*
X107574996Y-104284847I625047J45D01*
G01*
X106950045Y-102086155D02*
G75*
G03*
X106774994Y-101911155I-175045J-45D01*
G01*
X105974992Y-103097994D02*
G75*
G03*
X106599994Y-102472999I8J624994D01*
G01*
X102360000Y-103652980D02*
X102360000Y-103398001D01*
X105060000Y-103098000D02*
G75*
G03*
X104760000Y-103398001I0J-300000D01*
G01*
X104460000Y-103953000D02*
G75*
G03*
X104760000Y-103652980I0J300000D01*
G01*
X104160000Y-103398001D02*
X104160000Y-103652980D01*
X104160020Y-103652980D02*
G75*
G03*
X104460000Y-103952980I299980J-20D01*
G01*
X104159999Y-103398001D02*
G75*
G03*
X103860000Y-103098001I-299999J1D01*
G01*
X103260000Y-103953000D02*
G75*
G03*
X103560000Y-103652955I0J300000D01*
G01*
X113290001Y-103098001D02*
X114065000Y-103873000D01*
X102960045Y-103652955D02*
G75*
G03*
X103260000Y-103952955I299955J-45D01*
G01*
X106774994Y-101911194D02*
G75*
G03*
X106599994Y-102086155I6J-175006D01*
G01*
X102959999Y-103398001D02*
G75*
G03*
X102660000Y-103098001I-299999J1D01*
G01*
X94900000Y-104500000D02*
X93103053Y-104500000D01*
X102060000Y-103953000D02*
G75*
G03*
X102360000Y-103652980I0J300000D01*
G01*
X102660000Y-103098000D02*
G75*
G03*
X102360000Y-103398001I0J-300000D01*
G01*
X100860000Y-103953000D02*
G75*
G03*
X101160000Y-103652980I0J300000D01*
G01*
X101759999Y-103398001D02*
G75*
G03*
X101460000Y-103098001I-299999J1D01*
G01*
X103860000Y-103098000D02*
G75*
G03*
X103560000Y-103398001I0J-300000D01*
G01*
X101760020Y-103652980D02*
G75*
G03*
X102060000Y-103952980I299980J-20D01*
G01*
X95156800Y-98425000D02*
X99829801Y-103098001D01*
X100559999Y-103398001D02*
G75*
G03*
X100260000Y-103098001I-299999J1D01*
G01*
X105710000Y-103098001D02*
X105974992Y-103098001D01*
X100560020Y-103652980D02*
G75*
G03*
X100860000Y-103952980I299980J-20D01*
G01*
X101460000Y-103098000D02*
G75*
G03*
X101160000Y-103398001I0J-300000D01*
G01*
X95400000Y-104350999D02*
X95049001Y-104350999D01*
%TO.N,/DP*%
X113290001Y-102647999D02*
X114065000Y-101873000D01*
X107399996Y-102086155D02*
X107399996Y-103659845D01*
X106149992Y-102472999D02*
X106149992Y-102086155D01*
X102810000Y-102647999D02*
X104098373Y-102647999D01*
X102510000Y-102241506D02*
X102510000Y-102347999D01*
X107749996Y-103659845D02*
X107749996Y-102086155D01*
X101910000Y-102347999D02*
X101910000Y-102241506D01*
X100710000Y-102347999D02*
X100710000Y-102241530D01*
X99874773Y-102647999D02*
X100410000Y-102647999D01*
X95301774Y-98075000D02*
X99874773Y-102647999D01*
X109000000Y-102086155D02*
X109000000Y-102472999D01*
X91931800Y-98075000D02*
X95301774Y-98075000D01*
X92967152Y-105000499D02*
X91408508Y-103441855D01*
X96300998Y-105000499D02*
X92967152Y-105000499D01*
X96300500Y-105000001D02*
X96300998Y-105000499D01*
X109000001Y-102472999D02*
G75*
G03*
X109175000Y-102647999I174999J-1D01*
G01*
X101310000Y-102241530D02*
X101310000Y-102347999D01*
X109000047Y-102086155D02*
G75*
G03*
X108374998Y-101461153I-625047J-45D01*
G01*
X108374998Y-101461196D02*
G75*
G03*
X107749996Y-102086155I2J-625004D01*
G01*
X107574996Y-103834796D02*
G75*
G03*
X107749996Y-103659845I4J174996D01*
G01*
X107399955Y-103659845D02*
G75*
G03*
X107574996Y-103834845I175045J45D01*
G01*
X107400047Y-102086155D02*
G75*
G03*
X106774994Y-101461153I-625047J-45D01*
G01*
X106774994Y-101461192D02*
G75*
G03*
X106149992Y-102086155I6J-625008D01*
G01*
X105974992Y-102647992D02*
G75*
G03*
X106149992Y-102472999I8J174992D01*
G01*
X102510001Y-102347999D02*
G75*
G03*
X102810000Y-102647999I299999J-1D01*
G01*
X101310001Y-102347999D02*
G75*
G03*
X101610000Y-102647999I299999J-1D01*
G01*
X101610000Y-102648000D02*
G75*
G03*
X101910000Y-102347999I0J300000D01*
G01*
X91408508Y-103441855D02*
X91408508Y-98598292D01*
X109175000Y-102647999D02*
X113290001Y-102647999D01*
X101309970Y-102241530D02*
G75*
G03*
X101010000Y-101941530I-299970J30D01*
G01*
X101010000Y-101941500D02*
G75*
G03*
X100710000Y-102241530I0J-300000D01*
G01*
X100410000Y-102648000D02*
G75*
G03*
X100710000Y-102347999I0J300000D01*
G01*
X102210000Y-101941500D02*
G75*
G03*
X101910000Y-102241506I0J-300000D01*
G01*
X102509994Y-102241506D02*
G75*
G03*
X102210000Y-101941506I-299994J6D01*
G01*
X91408508Y-98598292D02*
X91931800Y-98075000D01*
X104098373Y-102647999D02*
X105974992Y-102647999D01*
D27*
%TO.N,/VCC_5V*%
X96250000Y-107750000D02*
X96152000Y-107652000D01*
X96152000Y-107652000D02*
X93683500Y-107652000D01*
%TO.N,Net-(D1-K)*%
X107322500Y-107591500D02*
X107418000Y-107496000D01*
X104649000Y-107591500D02*
X107322500Y-107591500D01*
%TO.N,GND*%
X90032000Y-91621000D02*
X88997000Y-91621000D01*
X93108500Y-101477000D02*
X93683500Y-102052000D01*
X90452000Y-95241000D02*
X90452000Y-95841000D01*
X90032000Y-96261000D02*
X88997000Y-96261000D01*
X93108500Y-109027000D02*
X93683500Y-108452000D01*
X88997000Y-91621000D02*
X87802000Y-92816000D01*
X90452000Y-95841000D02*
X90032000Y-96261000D01*
X93108500Y-100142000D02*
X93108500Y-101477000D01*
X93108500Y-110362000D02*
X93108500Y-109027000D01*
X88997000Y-96261000D02*
X87802000Y-95066000D01*
%TO.N,/5V*%
X103113500Y-109031000D02*
X104649000Y-110566500D01*
X102459000Y-106373000D02*
X99801000Y-109031000D01*
X114065000Y-106373000D02*
X102459000Y-106373000D01*
X99801000Y-109031000D02*
X103113500Y-109031000D01*
%TO.N,/VCC_5V*%
X99833000Y-92464000D02*
X99656000Y-92641000D01*
X99656000Y-92641000D02*
X90452000Y-92641000D01*
X95332000Y-102833000D02*
X93702500Y-102833000D01*
X93702500Y-102833000D02*
X93683500Y-102852000D01*
%TD*%
%TA.AperFunction,Conductor*%
%TO.N,GND*%
G36*
X123750026Y-89455771D02*
G01*
X123811986Y-89472494D01*
X123857288Y-89517955D01*
X123873795Y-89579975D01*
X123837207Y-111806696D01*
X123820108Y-111869326D01*
X123773707Y-111914731D01*
X123710721Y-111930467D01*
X123089013Y-111918000D01*
X123088999Y-111917999D01*
X119483640Y-111911940D01*
X119418551Y-111893354D01*
X119372920Y-111843352D01*
X119360349Y-111776836D01*
X119384585Y-111713630D01*
X119458351Y-111615091D01*
X119508597Y-111480375D01*
X119515000Y-111420824D01*
X119515000Y-110373000D01*
X113365000Y-110373000D01*
X113365000Y-111420824D01*
X113371402Y-111480375D01*
X113421648Y-111615091D01*
X113487746Y-111703387D01*
X113511990Y-111766697D01*
X113499316Y-111833295D01*
X113453513Y-111883274D01*
X113388271Y-111901696D01*
X112688772Y-111900521D01*
X108453748Y-111893404D01*
X108392437Y-111877067D01*
X108347234Y-111832541D01*
X108329973Y-111771484D01*
X108345176Y-111709882D01*
X108388860Y-111663865D01*
X108511345Y-111588316D01*
X108635316Y-111464345D01*
X108727357Y-111315122D01*
X108782506Y-111148696D01*
X108793000Y-111045979D01*
X108793000Y-110846000D01*
X107292000Y-110846000D01*
X107230000Y-110829387D01*
X107184613Y-110784000D01*
X107168000Y-110722000D01*
X107168000Y-109446001D01*
X106743021Y-109446001D01*
X106640304Y-109456493D01*
X106473877Y-109511642D01*
X106324654Y-109603683D01*
X106200681Y-109727656D01*
X106167704Y-109781121D01*
X106122597Y-109824302D01*
X106062166Y-109840024D01*
X106001734Y-109824301D01*
X105956628Y-109781121D01*
X105866711Y-109635344D01*
X105742655Y-109511288D01*
X105636808Y-109446000D01*
X107668000Y-109446000D01*
X107668000Y-110346000D01*
X108792999Y-110346000D01*
X108792999Y-110146021D01*
X108782506Y-110043304D01*
X108727357Y-109876877D01*
X108724966Y-109873000D01*
X113365000Y-109873000D01*
X116190000Y-109873000D01*
X116190000Y-108373000D01*
X116690000Y-108373000D01*
X116690000Y-109873000D01*
X119515000Y-109873000D01*
X119515000Y-108825176D01*
X119508597Y-108765624D01*
X119458352Y-108630910D01*
X119372188Y-108515811D01*
X119257089Y-108429647D01*
X119122375Y-108379402D01*
X119062824Y-108373000D01*
X116690000Y-108373000D01*
X116190000Y-108373000D01*
X113817176Y-108373000D01*
X113757624Y-108379402D01*
X113622910Y-108429647D01*
X113507811Y-108515811D01*
X113421647Y-108630910D01*
X113371402Y-108765624D01*
X113365000Y-108825176D01*
X113365000Y-109873000D01*
X108724966Y-109873000D01*
X108635316Y-109727654D01*
X108511345Y-109603683D01*
X108362122Y-109511642D01*
X108195696Y-109456493D01*
X108092979Y-109446000D01*
X107668000Y-109446000D01*
X105636808Y-109446000D01*
X105593336Y-109419186D01*
X105426797Y-109364000D01*
X105324008Y-109353500D01*
X104371953Y-109353500D01*
X104324500Y-109344061D01*
X104284272Y-109317181D01*
X103983272Y-109016181D01*
X103953022Y-108966818D01*
X103948480Y-108909102D01*
X103970635Y-108855615D01*
X104014658Y-108818015D01*
X104070953Y-108804500D01*
X105324008Y-108804500D01*
X105426797Y-108793999D01*
X105426797Y-108793998D01*
X105593334Y-108738814D01*
X105653019Y-108702000D01*
X105742655Y-108646711D01*
X105866711Y-108522655D01*
X105909984Y-108452499D01*
X105958814Y-108373334D01*
X105961430Y-108365436D01*
X106000817Y-108308304D01*
X106064737Y-108281279D01*
X106133168Y-108292831D01*
X106184674Y-108339342D01*
X106200288Y-108364656D01*
X106265279Y-108429647D01*
X106324345Y-108488713D01*
X106379375Y-108522655D01*
X106473666Y-108580814D01*
X106565196Y-108611144D01*
X106640202Y-108635999D01*
X106650702Y-108637071D01*
X106742991Y-108646500D01*
X108093008Y-108646499D01*
X108195797Y-108635999D01*
X108362334Y-108580814D01*
X108511656Y-108488712D01*
X108635712Y-108364656D01*
X108727814Y-108215334D01*
X108782999Y-108048797D01*
X108793500Y-107946009D01*
X108793499Y-107122499D01*
X108810112Y-107060500D01*
X108855499Y-107015113D01*
X108917499Y-106998500D01*
X112260182Y-106998500D01*
X112308996Y-107008512D01*
X112349926Y-107036932D01*
X112359326Y-107051950D01*
X112360519Y-107051058D01*
X112414000Y-107122500D01*
X112457454Y-107180546D01*
X112572669Y-107266796D01*
X112707517Y-107317091D01*
X112767127Y-107323500D01*
X115362872Y-107323499D01*
X115422483Y-107317091D01*
X115557331Y-107266796D01*
X115672546Y-107180546D01*
X115758796Y-107065331D01*
X115809091Y-106930483D01*
X115815500Y-106870873D01*
X115815499Y-105875128D01*
X115809091Y-105815517D01*
X115758796Y-105680669D01*
X115672546Y-105565454D01*
X115557331Y-105479204D01*
X115526348Y-105467648D01*
X117244500Y-105467648D01*
X117283855Y-105652802D01*
X117360848Y-105825730D01*
X117472110Y-105978870D01*
X117612783Y-106105533D01*
X117776715Y-106200179D01*
X117863363Y-106228332D01*
X117956744Y-106258674D01*
X118097808Y-106273500D01*
X118192189Y-106273500D01*
X118192192Y-106273500D01*
X118333256Y-106258674D01*
X118513284Y-106200179D01*
X118677216Y-106105533D01*
X118817888Y-105978871D01*
X118841002Y-105947058D01*
X118929151Y-105825730D01*
X118957376Y-105762336D01*
X119006144Y-105652803D01*
X119019262Y-105591084D01*
X119045500Y-105467648D01*
X119045500Y-105278352D01*
X119006144Y-105093197D01*
X118929151Y-104920269D01*
X118817889Y-104767129D01*
X118677216Y-104640466D01*
X118513284Y-104545820D01*
X118333257Y-104487326D01*
X118297990Y-104483619D01*
X118192192Y-104472500D01*
X118097808Y-104472500D01*
X118013169Y-104481395D01*
X117956742Y-104487326D01*
X117776715Y-104545820D01*
X117612783Y-104640466D01*
X117472110Y-104767129D01*
X117360848Y-104920269D01*
X117283855Y-105093197D01*
X117244500Y-105278352D01*
X117244500Y-105467648D01*
X115526348Y-105467648D01*
X115422483Y-105428909D01*
X115362873Y-105422500D01*
X115362869Y-105422500D01*
X112767130Y-105422500D01*
X112707515Y-105428909D01*
X112572669Y-105479204D01*
X112457453Y-105565454D01*
X112360519Y-105694942D01*
X112359326Y-105694049D01*
X112349926Y-105709068D01*
X112308996Y-105737488D01*
X112260182Y-105747500D01*
X102541744Y-105747500D01*
X102521236Y-105745235D01*
X102451113Y-105747439D01*
X102447219Y-105747500D01*
X102419650Y-105747500D01*
X102415671Y-105748002D01*
X102404041Y-105748917D01*
X102360372Y-105750289D01*
X102341128Y-105755880D01*
X102322084Y-105759824D01*
X102302208Y-105762335D01*
X102261600Y-105778413D01*
X102250554Y-105782194D01*
X102208610Y-105794382D01*
X102208607Y-105794383D01*
X102191365Y-105804579D01*
X102173904Y-105813133D01*
X102155267Y-105820512D01*
X102119931Y-105846185D01*
X102110174Y-105852595D01*
X102072580Y-105874829D01*
X102058413Y-105888996D01*
X102043624Y-105901626D01*
X102027413Y-105913404D01*
X101999572Y-105947058D01*
X101991711Y-105955697D01*
X101453227Y-106494181D01*
X101412999Y-106521061D01*
X101365546Y-106530500D01*
X97753130Y-106530500D01*
X97693515Y-106536909D01*
X97558669Y-106587204D01*
X97443454Y-106673454D01*
X97357204Y-106788668D01*
X97306909Y-106923516D01*
X97300500Y-106983131D01*
X97300500Y-107305744D01*
X97283887Y-107367744D01*
X97238500Y-107413131D01*
X97176500Y-107429744D01*
X97114500Y-107413131D01*
X97069113Y-107367744D01*
X96982533Y-107217784D01*
X96855870Y-107077110D01*
X96702730Y-106965848D01*
X96529802Y-106888855D01*
X96344648Y-106849500D01*
X96344646Y-106849500D01*
X96155354Y-106849500D01*
X96142321Y-106849500D01*
X96142321Y-106846195D01*
X96101144Y-106844035D01*
X96047316Y-106809075D01*
X96018178Y-106751884D01*
X96021537Y-106687790D01*
X96027650Y-106668979D01*
X96044301Y-106510541D01*
X96060234Y-106461509D01*
X96094732Y-106423194D01*
X96221813Y-106330865D01*
X96348475Y-106190193D01*
X96443121Y-106026261D01*
X96468449Y-105948306D01*
X96503409Y-105894473D01*
X96560600Y-105865332D01*
X96580303Y-105861145D01*
X96580304Y-105861144D01*
X96580306Y-105861144D01*
X96753230Y-105784152D01*
X96906370Y-105672890D01*
X96924457Y-105652803D01*
X97033033Y-105532217D01*
X97127679Y-105368285D01*
X97186174Y-105188257D01*
X97205960Y-105000001D01*
X97186174Y-104811745D01*
X97127679Y-104631717D01*
X97127679Y-104631716D01*
X97033033Y-104467784D01*
X96906370Y-104327111D01*
X96753230Y-104215849D01*
X96580302Y-104138856D01*
X96395148Y-104099501D01*
X96395146Y-104099501D01*
X96355217Y-104099501D01*
X96304782Y-104088781D01*
X96263067Y-104058474D01*
X96237286Y-104013820D01*
X96227178Y-103982713D01*
X96132533Y-103818782D01*
X96005873Y-103678113D01*
X96005872Y-103678112D01*
X96005871Y-103678111D01*
X95982431Y-103661081D01*
X95940347Y-103607215D01*
X95933202Y-103539231D01*
X95963168Y-103477792D01*
X96064533Y-103365216D01*
X96159179Y-103201284D01*
X96217674Y-103021256D01*
X96237460Y-102833000D01*
X96217674Y-102644744D01*
X96159179Y-102464716D01*
X96159179Y-102464715D01*
X96064533Y-102300783D01*
X95937870Y-102160110D01*
X95784730Y-102048848D01*
X95611802Y-101971855D01*
X95426648Y-101932500D01*
X95426646Y-101932500D01*
X95237354Y-101932500D01*
X95237352Y-101932500D01*
X95052201Y-101971854D01*
X94932936Y-102024955D01*
X94872771Y-102035293D01*
X94814965Y-102015670D01*
X94773527Y-101970843D01*
X94758500Y-101911675D01*
X94758500Y-101704176D01*
X94752097Y-101644624D01*
X94701852Y-101509911D01*
X94627831Y-101411031D01*
X94607516Y-101369526D01*
X94603808Y-101323465D01*
X94608500Y-101279823D01*
X94608500Y-100392000D01*
X92982500Y-100392000D01*
X92920500Y-100375387D01*
X92875113Y-100330000D01*
X92858500Y-100268000D01*
X92858500Y-100016000D01*
X92875113Y-99954000D01*
X92920500Y-99908613D01*
X92982500Y-99892000D01*
X94608500Y-99892000D01*
X94608500Y-99149500D01*
X94625113Y-99087500D01*
X94670500Y-99042113D01*
X94732500Y-99025500D01*
X94856703Y-99025500D01*
X94904156Y-99034939D01*
X94944384Y-99061819D01*
X99371600Y-103489035D01*
X99382295Y-103501230D01*
X99401518Y-103526283D01*
X99506992Y-103607215D01*
X99508948Y-103608716D01*
X99526960Y-103622537D01*
X99673039Y-103683045D01*
X99829801Y-103703683D01*
X99833695Y-103703170D01*
X99894824Y-103710538D01*
X99944875Y-103746404D01*
X99971503Y-103801923D01*
X99994110Y-103915612D01*
X100021900Y-103982713D01*
X100061985Y-104079501D01*
X100095918Y-104130290D01*
X100160531Y-104226998D01*
X100285954Y-104352430D01*
X100285957Y-104352432D01*
X100433446Y-104450986D01*
X100597259Y-104518843D01*
X100597329Y-104518872D01*
X100771306Y-104553480D01*
X100771307Y-104553480D01*
X100787086Y-104553480D01*
X100808618Y-104553480D01*
X100808723Y-104553500D01*
X100860000Y-104553500D01*
X100948695Y-104553499D01*
X101122677Y-104518891D01*
X101286563Y-104451004D01*
X101391127Y-104381132D01*
X101435826Y-104362617D01*
X101484210Y-104362617D01*
X101528907Y-104381132D01*
X101633397Y-104450953D01*
X101633446Y-104450986D01*
X101797329Y-104518872D01*
X101971306Y-104553480D01*
X101971307Y-104553480D01*
X101987086Y-104553480D01*
X102008618Y-104553480D01*
X102008723Y-104553500D01*
X102060000Y-104553500D01*
X102148695Y-104553499D01*
X102322677Y-104518891D01*
X102486563Y-104451004D01*
X102591124Y-104381135D01*
X102591148Y-104381119D01*
X102635850Y-104362602D01*
X102684236Y-104362602D01*
X102728937Y-104381120D01*
X102786054Y-104419289D01*
X102833437Y-104450953D01*
X102833438Y-104450953D01*
X102833439Y-104450954D01*
X102915380Y-104484898D01*
X102997323Y-104518844D01*
X103171304Y-104553454D01*
X103171817Y-104553454D01*
X103171825Y-104553455D01*
X103187086Y-104553455D01*
X103208593Y-104553455D01*
X103208824Y-104553500D01*
X103260000Y-104553500D01*
X103348700Y-104553499D01*
X103522690Y-104518887D01*
X103669126Y-104458225D01*
X103686582Y-104450994D01*
X103686582Y-104450993D01*
X103686584Y-104450993D01*
X103791122Y-104381133D01*
X103835821Y-104362616D01*
X103884207Y-104362616D01*
X103928909Y-104381133D01*
X104033444Y-104450985D01*
X104033445Y-104450985D01*
X104033446Y-104450986D01*
X104085383Y-104472500D01*
X104197329Y-104518872D01*
X104371306Y-104553480D01*
X104371307Y-104553480D01*
X104387086Y-104553480D01*
X104408618Y-104553480D01*
X104408723Y-104553500D01*
X104460000Y-104553500D01*
X104548695Y-104553499D01*
X104722677Y-104518891D01*
X104886563Y-104451004D01*
X105034056Y-104352447D01*
X105159485Y-104227009D01*
X105258032Y-104079510D01*
X105325908Y-103915619D01*
X105349234Y-103798317D01*
X105372474Y-103747018D01*
X105416007Y-103711290D01*
X105470853Y-103698501D01*
X106022943Y-103698501D01*
X106023039Y-103698494D01*
X106071434Y-103698495D01*
X106211248Y-103676352D01*
X106275080Y-103683060D01*
X106327007Y-103720785D01*
X106353116Y-103779419D01*
X106379646Y-103946855D01*
X106439263Y-104130304D01*
X106482857Y-104215850D01*
X106526835Y-104302151D01*
X106526849Y-104302177D01*
X106640233Y-104458225D01*
X106776633Y-104594616D01*
X106776636Y-104594618D01*
X106932695Y-104707996D01*
X107104568Y-104795566D01*
X107104570Y-104795566D01*
X107104571Y-104795567D01*
X107288023Y-104855172D01*
X107478541Y-104885347D01*
X107478544Y-104885347D01*
X107574992Y-104885347D01*
X107647906Y-104885347D01*
X107662743Y-104885347D01*
X107663147Y-104885298D01*
X107671435Y-104885298D01*
X107671437Y-104885298D01*
X107861952Y-104855126D01*
X108045402Y-104795524D01*
X108217270Y-104707958D01*
X108373324Y-104594586D01*
X108509723Y-104458198D01*
X108623108Y-104302152D01*
X108710687Y-104130291D01*
X108770304Y-103946846D01*
X108796833Y-103779415D01*
X108822941Y-103720784D01*
X108874869Y-103683059D01*
X108938702Y-103676351D01*
X109078549Y-103698501D01*
X109078551Y-103698501D01*
X109135639Y-103698501D01*
X109175000Y-103698501D01*
X109247914Y-103698501D01*
X112190500Y-103698501D01*
X112252500Y-103715114D01*
X112297887Y-103760501D01*
X112314500Y-103822501D01*
X112314500Y-104370869D01*
X112320909Y-104430484D01*
X112331246Y-104458198D01*
X112371204Y-104565331D01*
X112457454Y-104680546D01*
X112572669Y-104766796D01*
X112707517Y-104817091D01*
X112767127Y-104823500D01*
X115362872Y-104823499D01*
X115422483Y-104817091D01*
X115557331Y-104766796D01*
X115672546Y-104680546D01*
X115758796Y-104565331D01*
X115809091Y-104430483D01*
X115815500Y-104370873D01*
X115815499Y-103375128D01*
X115809091Y-103315517D01*
X115758796Y-103180669D01*
X115672546Y-103065454D01*
X115557331Y-102979204D01*
X115557328Y-102979203D01*
X115548063Y-102972267D01*
X115511490Y-102928504D01*
X115498374Y-102873000D01*
X115511490Y-102817496D01*
X115548063Y-102773733D01*
X115557328Y-102766797D01*
X115557331Y-102766796D01*
X115672546Y-102680546D01*
X115758796Y-102565331D01*
X115809091Y-102430483D01*
X115815500Y-102370873D01*
X115815499Y-101375128D01*
X115809091Y-101315517D01*
X115758796Y-101180669D01*
X115672546Y-101065454D01*
X115557331Y-100979204D01*
X115422483Y-100928909D01*
X115362873Y-100922500D01*
X115362869Y-100922500D01*
X112767130Y-100922500D01*
X112707515Y-100928909D01*
X112572669Y-100979204D01*
X112457454Y-101065454D01*
X112371204Y-101180668D01*
X112320909Y-101315515D01*
X112320909Y-101315517D01*
X112314500Y-101375127D01*
X112314500Y-101704176D01*
X112314501Y-101923499D01*
X112297888Y-101985499D01*
X112252501Y-102030886D01*
X112190501Y-102047499D01*
X109715604Y-102047499D01*
X109659311Y-102033985D01*
X109615289Y-101996389D01*
X109593132Y-101942905D01*
X109570353Y-101799144D01*
X109568681Y-101794000D01*
X109510734Y-101615691D01*
X109423151Y-101443823D01*
X109309762Y-101287771D01*
X109309760Y-101287768D01*
X109173358Y-101151376D01*
X109017299Y-101038000D01*
X108845426Y-100950432D01*
X108845425Y-100950431D01*
X108845424Y-100950431D01*
X108750258Y-100919511D01*
X108661968Y-100890826D01*
X108623862Y-100884791D01*
X108471445Y-100860652D01*
X108471441Y-100860652D01*
X108374996Y-100860653D01*
X108287341Y-100860653D01*
X108287001Y-100860695D01*
X108278549Y-100860695D01*
X108088036Y-100890868D01*
X107904590Y-100950471D01*
X107732715Y-101038042D01*
X107647918Y-101099647D01*
X107600816Y-101120618D01*
X107549257Y-101120618D01*
X107502154Y-101099648D01*
X107455087Y-101065454D01*
X107417294Y-101037998D01*
X107417293Y-101037997D01*
X107417291Y-101037996D01*
X107245421Y-100950430D01*
X107159458Y-100922501D01*
X107061960Y-100890824D01*
X106871437Y-100860651D01*
X106871434Y-100860651D01*
X106774987Y-100860653D01*
X106687159Y-100860653D01*
X106686847Y-100860692D01*
X106678542Y-100860692D01*
X106488029Y-100890866D01*
X106304583Y-100950470D01*
X106132712Y-101038039D01*
X105976661Y-101151412D01*
X105840259Y-101287805D01*
X105726879Y-101443846D01*
X105639300Y-101615708D01*
X105579684Y-101799155D01*
X105562310Y-101908807D01*
X105559983Y-101923499D01*
X105556908Y-101942904D01*
X105534751Y-101996389D01*
X105490729Y-102033985D01*
X105434436Y-102047499D01*
X104137734Y-102047499D01*
X103187182Y-102047499D01*
X103139729Y-102038060D01*
X103099500Y-102011179D01*
X103072622Y-101970953D01*
X103008013Y-101814967D01*
X102948300Y-101725597D01*
X102909468Y-101667478D01*
X102886614Y-101644624D01*
X102784038Y-101542046D01*
X102735946Y-101509911D01*
X102636550Y-101443495D01*
X102472666Y-101375612D01*
X102298693Y-101341006D01*
X102298692Y-101341006D01*
X102261368Y-101341006D01*
X102261338Y-101341000D01*
X102210000Y-101341000D01*
X102121307Y-101341000D01*
X102121306Y-101341000D01*
X101947332Y-101375606D01*
X101783446Y-101443490D01*
X101678862Y-101513372D01*
X101634161Y-101531888D01*
X101585777Y-101531887D01*
X101541077Y-101513370D01*
X101436557Y-101443527D01*
X101272672Y-101375638D01*
X101098694Y-101341031D01*
X101082917Y-101341030D01*
X101082916Y-101341030D01*
X101061392Y-101341030D01*
X101061236Y-101340999D01*
X100921303Y-101341000D01*
X100747317Y-101375611D01*
X100583428Y-101443500D01*
X100435935Y-101542059D01*
X100310503Y-101667504D01*
X100211957Y-101815008D01*
X100188980Y-101870491D01*
X100153085Y-101918895D01*
X100098611Y-101944662D01*
X100038422Y-101941706D01*
X99986735Y-101910726D01*
X98543657Y-100467648D01*
X117244500Y-100467648D01*
X117283855Y-100652802D01*
X117360848Y-100825730D01*
X117472110Y-100978870D01*
X117612783Y-101105533D01*
X117776715Y-101200179D01*
X117863363Y-101228332D01*
X117956744Y-101258674D01*
X118097808Y-101273500D01*
X118192189Y-101273500D01*
X118192192Y-101273500D01*
X118333256Y-101258674D01*
X118513284Y-101200179D01*
X118677216Y-101105533D01*
X118817888Y-100978871D01*
X118838523Y-100950470D01*
X118929151Y-100825730D01*
X119006144Y-100652802D01*
X119045500Y-100467648D01*
X119045500Y-100278352D01*
X119006144Y-100093197D01*
X118929151Y-99920269D01*
X118817889Y-99767129D01*
X118677216Y-99640466D01*
X118513284Y-99545820D01*
X118333257Y-99487326D01*
X118297989Y-99483619D01*
X118192192Y-99472500D01*
X118097808Y-99472500D01*
X118013169Y-99481395D01*
X117956742Y-99487326D01*
X117776715Y-99545820D01*
X117612783Y-99640466D01*
X117472110Y-99767129D01*
X117360848Y-99920269D01*
X117283855Y-100093197D01*
X117244500Y-100278352D01*
X117244500Y-100467648D01*
X98543657Y-100467648D01*
X97699009Y-99623000D01*
X112315000Y-99623000D01*
X112315000Y-99870824D01*
X112321402Y-99930375D01*
X112371647Y-100065089D01*
X112457811Y-100180188D01*
X112572910Y-100266352D01*
X112707624Y-100316597D01*
X112767176Y-100323000D01*
X113815000Y-100323000D01*
X113815000Y-99623000D01*
X114315000Y-99623000D01*
X114315000Y-100323000D01*
X115362824Y-100323000D01*
X115422375Y-100316597D01*
X115557089Y-100266352D01*
X115672188Y-100180188D01*
X115758352Y-100065089D01*
X115808597Y-99930375D01*
X115815000Y-99870824D01*
X115815000Y-99623000D01*
X114315000Y-99623000D01*
X113815000Y-99623000D01*
X112315000Y-99623000D01*
X97699009Y-99623000D01*
X97199009Y-99123000D01*
X112315000Y-99123000D01*
X113815000Y-99123000D01*
X113815000Y-98423000D01*
X114315000Y-98423000D01*
X114315000Y-99123000D01*
X115815000Y-99123000D01*
X115815000Y-98875176D01*
X115808597Y-98815624D01*
X115758352Y-98680910D01*
X115672188Y-98565811D01*
X115557089Y-98479647D01*
X115422375Y-98429402D01*
X115362824Y-98423000D01*
X114315000Y-98423000D01*
X113815000Y-98423000D01*
X112767176Y-98423000D01*
X112707624Y-98429402D01*
X112572910Y-98479647D01*
X112457811Y-98565811D01*
X112371647Y-98680910D01*
X112321402Y-98815624D01*
X112315000Y-98875176D01*
X112315000Y-99123000D01*
X97199009Y-99123000D01*
X95759973Y-97683964D01*
X95749277Y-97671768D01*
X95730055Y-97646716D01*
X95604614Y-97550463D01*
X95458536Y-97489956D01*
X95341135Y-97474500D01*
X95336554Y-97473897D01*
X95301774Y-97469317D01*
X95273937Y-97472982D01*
X95270471Y-97473439D01*
X95254287Y-97474500D01*
X93167297Y-97474500D01*
X93111002Y-97460985D01*
X93066979Y-97423385D01*
X93044824Y-97369898D01*
X93049366Y-97312182D01*
X93079616Y-97262819D01*
X93366238Y-96976196D01*
X93466043Y-96876390D01*
X93478223Y-96865709D01*
X93503282Y-96846482D01*
X93599536Y-96721041D01*
X93660044Y-96574962D01*
X93675500Y-96457561D01*
X93680682Y-96418200D01*
X93676560Y-96386897D01*
X93675500Y-96370713D01*
X93675500Y-95873000D01*
X113365000Y-95873000D01*
X113365000Y-96920824D01*
X113371402Y-96980375D01*
X113421647Y-97115089D01*
X113507811Y-97230188D01*
X113622910Y-97316352D01*
X113757624Y-97366597D01*
X113817176Y-97373000D01*
X116190000Y-97373000D01*
X116190000Y-95873000D01*
X116690000Y-95873000D01*
X116690000Y-97373000D01*
X119062824Y-97373000D01*
X119122375Y-97366597D01*
X119257089Y-97316352D01*
X119372188Y-97230188D01*
X119458352Y-97115089D01*
X119508597Y-96980375D01*
X119515000Y-96920824D01*
X119515000Y-95873000D01*
X116690000Y-95873000D01*
X116190000Y-95873000D01*
X113365000Y-95873000D01*
X93675500Y-95873000D01*
X93675500Y-95373000D01*
X113365000Y-95373000D01*
X116190000Y-95373000D01*
X116190000Y-93873000D01*
X116690000Y-93873000D01*
X116690000Y-95373000D01*
X119515000Y-95373000D01*
X119515000Y-94325176D01*
X119508597Y-94265624D01*
X119458352Y-94130910D01*
X119372188Y-94015811D01*
X119257089Y-93929647D01*
X119122375Y-93879402D01*
X119062824Y-93873000D01*
X116690000Y-93873000D01*
X116190000Y-93873000D01*
X113817176Y-93873000D01*
X113757624Y-93879402D01*
X113622910Y-93929647D01*
X113507811Y-94015811D01*
X113421647Y-94130910D01*
X113371402Y-94265624D01*
X113365000Y-94325176D01*
X113365000Y-95373000D01*
X93675500Y-95373000D01*
X93675500Y-94004287D01*
X93676561Y-93988101D01*
X93680682Y-93956799D01*
X93670492Y-93879402D01*
X93660044Y-93800038D01*
X93599536Y-93653959D01*
X93556968Y-93598483D01*
X93527454Y-93560019D01*
X93527452Y-93560017D01*
X93527450Y-93560015D01*
X93503282Y-93528518D01*
X93478229Y-93509294D01*
X93466035Y-93498600D01*
X93445616Y-93478181D01*
X93415366Y-93428818D01*
X93410824Y-93371102D01*
X93432979Y-93317615D01*
X93477002Y-93280015D01*
X93533297Y-93266500D01*
X97208501Y-93266500D01*
X97270501Y-93283113D01*
X97315888Y-93328500D01*
X97332501Y-93390500D01*
X97332501Y-94511872D01*
X97338909Y-94571483D01*
X97389204Y-94706331D01*
X97475454Y-94821546D01*
X97590669Y-94907796D01*
X97725517Y-94958091D01*
X97785127Y-94964500D01*
X101880872Y-94964499D01*
X101940483Y-94958091D01*
X102075331Y-94907796D01*
X102190546Y-94821546D01*
X102276796Y-94706331D01*
X102327091Y-94571483D01*
X102333500Y-94511873D01*
X102333499Y-92448869D01*
X103948500Y-92448869D01*
X103954909Y-92508484D01*
X103980056Y-92575906D01*
X104005204Y-92643331D01*
X104091454Y-92758546D01*
X104206669Y-92844796D01*
X104341517Y-92895091D01*
X104401127Y-92901500D01*
X106196872Y-92901499D01*
X106256483Y-92895091D01*
X106391331Y-92844796D01*
X106506546Y-92758546D01*
X106592796Y-92643331D01*
X106641810Y-92511916D01*
X106676789Y-92461537D01*
X106731634Y-92434084D01*
X106792927Y-92436273D01*
X106845673Y-92467569D01*
X106967599Y-92589495D01*
X107161170Y-92725035D01*
X107375337Y-92824903D01*
X107603592Y-92886063D01*
X107839000Y-92906659D01*
X108074408Y-92886063D01*
X108302663Y-92824903D01*
X108516830Y-92725035D01*
X108710401Y-92589495D01*
X108877495Y-92422401D01*
X109007426Y-92236839D01*
X109051743Y-92197975D01*
X109109000Y-92183964D01*
X109166257Y-92197975D01*
X109210573Y-92236839D01*
X109340505Y-92422401D01*
X109507599Y-92589495D01*
X109701170Y-92725035D01*
X109915337Y-92824903D01*
X110143592Y-92886063D01*
X110379000Y-92906659D01*
X110614408Y-92886063D01*
X110842663Y-92824903D01*
X111056830Y-92725035D01*
X111250401Y-92589495D01*
X111417495Y-92422401D01*
X111547732Y-92236402D01*
X111592048Y-92197539D01*
X111649305Y-92183528D01*
X111706562Y-92197539D01*
X111750880Y-92236404D01*
X111880893Y-92422081D01*
X112047918Y-92589106D01*
X112241423Y-92724600D01*
X112455507Y-92824430D01*
X112668999Y-92881635D01*
X112669000Y-92881636D01*
X112669000Y-91801000D01*
X113169000Y-91801000D01*
X113169000Y-92881635D01*
X113382492Y-92824430D01*
X113596576Y-92724600D01*
X113790081Y-92589106D01*
X113957106Y-92422081D01*
X114092600Y-92228576D01*
X114192430Y-92014492D01*
X114249636Y-91801000D01*
X113169000Y-91801000D01*
X112669000Y-91801000D01*
X112669000Y-90220364D01*
X113169000Y-90220364D01*
X113169000Y-91301000D01*
X114249636Y-91301000D01*
X114249635Y-91300999D01*
X114192430Y-91087507D01*
X114092599Y-90873421D01*
X113957109Y-90679921D01*
X113790081Y-90512893D01*
X113596576Y-90377399D01*
X113382492Y-90277569D01*
X113169000Y-90220364D01*
X112669000Y-90220364D01*
X112668999Y-90220364D01*
X112455507Y-90277569D01*
X112241421Y-90377400D01*
X112047921Y-90512890D01*
X111880893Y-90679918D01*
X111750880Y-90865596D01*
X111706562Y-90904461D01*
X111649305Y-90918472D01*
X111592048Y-90904461D01*
X111547730Y-90865595D01*
X111417494Y-90679598D01*
X111250404Y-90512508D01*
X111250401Y-90512505D01*
X111056830Y-90376965D01*
X110842663Y-90277097D01*
X110781502Y-90260709D01*
X110614407Y-90215936D01*
X110379000Y-90195340D01*
X110143592Y-90215936D01*
X109915336Y-90277097D01*
X109701170Y-90376965D01*
X109507598Y-90512505D01*
X109340505Y-90679598D01*
X109210575Y-90865159D01*
X109166257Y-90904025D01*
X109109000Y-90918036D01*
X109051743Y-90904025D01*
X109007425Y-90865159D01*
X108877494Y-90679598D01*
X108710404Y-90512508D01*
X108710401Y-90512505D01*
X108516830Y-90376965D01*
X108302663Y-90277097D01*
X108241502Y-90260709D01*
X108074407Y-90215936D01*
X107839000Y-90195340D01*
X107603592Y-90215936D01*
X107375336Y-90277097D01*
X107161170Y-90376965D01*
X106967601Y-90512503D01*
X106845673Y-90634431D01*
X106792926Y-90665726D01*
X106731634Y-90667915D01*
X106676789Y-90640462D01*
X106641810Y-90590082D01*
X106613019Y-90512890D01*
X106592796Y-90458669D01*
X106506546Y-90343454D01*
X106391331Y-90257204D01*
X106256483Y-90206909D01*
X106196873Y-90200500D01*
X106196869Y-90200500D01*
X104401130Y-90200500D01*
X104341515Y-90206909D01*
X104206669Y-90257204D01*
X104091454Y-90343454D01*
X104005204Y-90458668D01*
X103954909Y-90593516D01*
X103948500Y-90653130D01*
X103948500Y-92448869D01*
X102333499Y-92448869D01*
X102333499Y-90416128D01*
X102327091Y-90356517D01*
X102276796Y-90221669D01*
X102190546Y-90106454D01*
X102075331Y-90020204D01*
X101940483Y-89969909D01*
X101880873Y-89963500D01*
X101880869Y-89963500D01*
X97785130Y-89963500D01*
X97725515Y-89969909D01*
X97590669Y-90020204D01*
X97475454Y-90106454D01*
X97389204Y-90221668D01*
X97338909Y-90356516D01*
X97332500Y-90416131D01*
X97332500Y-91891500D01*
X97315887Y-91953500D01*
X97270500Y-91998887D01*
X97208500Y-92015500D01*
X91460042Y-92015500D01*
X91420881Y-92009154D01*
X91407247Y-92002022D01*
X91394332Y-91997205D01*
X91394331Y-91997204D01*
X91337665Y-91976069D01*
X91295430Y-91949631D01*
X91267012Y-91908701D01*
X91259867Y-91873867D01*
X91257000Y-91871000D01*
X89906000Y-91871000D01*
X89844000Y-91854387D01*
X89798613Y-91809000D01*
X89782000Y-91747000D01*
X89782000Y-90546000D01*
X90282000Y-90546000D01*
X90282000Y-91371000D01*
X91257000Y-91371000D01*
X91257000Y-90998176D01*
X91250597Y-90938624D01*
X91200352Y-90803910D01*
X91114188Y-90688811D01*
X90999089Y-90602647D01*
X90864375Y-90552402D01*
X90804824Y-90546000D01*
X90282000Y-90546000D01*
X89782000Y-90546000D01*
X89292000Y-90546000D01*
X89258319Y-90579681D01*
X89218091Y-90606561D01*
X89170638Y-90616000D01*
X88052000Y-90616000D01*
X88052000Y-94816000D01*
X89141050Y-94816000D01*
X89189863Y-94826012D01*
X89230794Y-94854431D01*
X89257232Y-94896668D01*
X89284182Y-94968926D01*
X89292000Y-95012258D01*
X89292000Y-95041000D01*
X89304415Y-95053415D01*
X89307379Y-95054116D01*
X89351142Y-95090689D01*
X89397336Y-95152396D01*
X89420807Y-95209059D01*
X89414251Y-95270040D01*
X89379272Y-95320420D01*
X89324427Y-95347873D01*
X89263134Y-95345684D01*
X89213105Y-95316000D01*
X88052000Y-95316000D01*
X88052000Y-97266000D01*
X89170638Y-97266000D01*
X89218091Y-97275439D01*
X89258319Y-97302319D01*
X89292000Y-97336000D01*
X89782000Y-97336000D01*
X89782000Y-96135000D01*
X89798613Y-96073000D01*
X89844000Y-96027613D01*
X89906000Y-96011000D01*
X91257000Y-96011000D01*
X91259729Y-96008270D01*
X91267012Y-95972766D01*
X91295430Y-95931836D01*
X91337666Y-95905397D01*
X91394089Y-95884352D01*
X91509188Y-95798188D01*
X91595352Y-95683089D01*
X91645597Y-95548375D01*
X91652000Y-95488824D01*
X91652000Y-95441000D01*
X91491434Y-95441000D01*
X91432007Y-95425832D01*
X91387119Y-95384039D01*
X91367750Y-95325846D01*
X91378640Y-95265489D01*
X91417121Y-95217735D01*
X91509546Y-95148546D01*
X91552857Y-95090689D01*
X91596621Y-95054116D01*
X91651961Y-95041038D01*
X91652000Y-95041000D01*
X91652000Y-94993169D01*
X91645380Y-94931598D01*
X91645380Y-94905084D01*
X91646089Y-94898487D01*
X91646091Y-94898483D01*
X91652500Y-94838873D01*
X91652499Y-94611491D01*
X91661938Y-94564039D01*
X91688818Y-94523810D01*
X91729045Y-94496931D01*
X91804842Y-94465536D01*
X91804843Y-94465534D01*
X91808846Y-94463877D01*
X91838401Y-94448081D01*
X91878259Y-94441500D01*
X91900500Y-94441500D01*
X91962500Y-94458113D01*
X92007887Y-94503500D01*
X92024500Y-94565500D01*
X92024500Y-95931703D01*
X92015061Y-95979156D01*
X91988181Y-96019384D01*
X91464463Y-96543101D01*
X91408875Y-96575195D01*
X91344688Y-96575195D01*
X91289101Y-96543101D01*
X91257000Y-96511000D01*
X90282000Y-96511000D01*
X90282000Y-97336000D01*
X90372202Y-97336000D01*
X90428497Y-97349515D01*
X90472520Y-97387115D01*
X90494675Y-97440602D01*
X90490133Y-97498318D01*
X90459883Y-97547681D01*
X90217973Y-97789590D01*
X90205781Y-97800283D01*
X90180726Y-97819509D01*
X90156558Y-97851007D01*
X90156556Y-97851008D01*
X90084471Y-97944951D01*
X90023964Y-98091029D01*
X90003325Y-98247791D01*
X90007447Y-98279093D01*
X90008508Y-98295279D01*
X90008508Y-98428000D01*
X89991895Y-98490000D01*
X89946508Y-98535387D01*
X89884508Y-98552000D01*
X89428500Y-98552000D01*
X89428500Y-101732000D01*
X89884508Y-101732000D01*
X89946508Y-101748613D01*
X89991895Y-101794000D01*
X90008508Y-101856000D01*
X90008508Y-103104721D01*
X90007447Y-103120907D01*
X90003325Y-103152208D01*
X90007456Y-103183578D01*
X90008517Y-103199764D01*
X90008517Y-103736073D01*
X90007456Y-103752259D01*
X90003334Y-103783560D01*
X90008517Y-103822920D01*
X90008517Y-103822921D01*
X90023973Y-103940322D01*
X90084480Y-104086400D01*
X90180733Y-104211841D01*
X90205785Y-104231063D01*
X90217981Y-104241759D01*
X92369256Y-106393034D01*
X92379951Y-106405229D01*
X92399174Y-106430282D01*
X92482806Y-106494454D01*
X92482807Y-106494455D01*
X92524616Y-106526536D01*
X92531452Y-106529368D01*
X92571680Y-106556247D01*
X92598560Y-106596475D01*
X92608000Y-106643927D01*
X92608000Y-106699872D01*
X92612179Y-106738746D01*
X92612179Y-106765249D01*
X92608000Y-106804127D01*
X92608000Y-107199871D01*
X92612179Y-107238746D01*
X92612179Y-107265249D01*
X92608000Y-107304128D01*
X92608000Y-107452855D01*
X92593989Y-107510112D01*
X92555124Y-107554430D01*
X92500185Y-107575794D01*
X92458264Y-107581312D01*
X92318268Y-107639301D01*
X92198049Y-107731549D01*
X92105801Y-107851768D01*
X92047812Y-107991764D01*
X92028033Y-108141999D01*
X92047812Y-108292235D01*
X92103039Y-108425562D01*
X92105802Y-108432233D01*
X92169934Y-108515811D01*
X92207987Y-108565402D01*
X92207249Y-108565968D01*
X92232158Y-108597566D01*
X92242496Y-108657730D01*
X92222873Y-108715536D01*
X92178045Y-108756973D01*
X92118878Y-108772000D01*
X92060676Y-108772000D01*
X92001124Y-108778402D01*
X91866410Y-108828647D01*
X91751311Y-108914811D01*
X91665147Y-109029910D01*
X91614902Y-109164624D01*
X91608500Y-109224176D01*
X91608500Y-110112000D01*
X94608500Y-110112000D01*
X94608500Y-109224176D01*
X94603808Y-109180532D01*
X94607517Y-109134471D01*
X94627832Y-109092966D01*
X94701852Y-108994089D01*
X94752097Y-108859375D01*
X94758500Y-108799824D01*
X94758500Y-108702000D01*
X93557500Y-108702000D01*
X93495500Y-108685387D01*
X93450113Y-108640000D01*
X93433500Y-108578000D01*
X93433500Y-108576499D01*
X93450113Y-108514499D01*
X93495500Y-108469112D01*
X93557500Y-108452499D01*
X94306370Y-108452499D01*
X94306372Y-108452499D01*
X94365983Y-108446091D01*
X94500831Y-108395796D01*
X94616046Y-108309546D01*
X94616047Y-108309544D01*
X94625814Y-108302233D01*
X94660966Y-108283846D01*
X94700125Y-108277500D01*
X95458012Y-108277500D01*
X95508447Y-108288220D01*
X95550162Y-108318528D01*
X95644129Y-108422889D01*
X95797269Y-108534151D01*
X95970197Y-108611144D01*
X96155352Y-108650500D01*
X96155354Y-108650500D01*
X96344646Y-108650500D01*
X96344648Y-108650500D01*
X96468084Y-108624262D01*
X96529803Y-108611144D01*
X96702730Y-108534151D01*
X96765273Y-108488711D01*
X96855870Y-108422889D01*
X96982533Y-108282216D01*
X97069113Y-108132255D01*
X97114500Y-108086868D01*
X97176500Y-108070255D01*
X97238500Y-108086868D01*
X97283887Y-108132255D01*
X97300500Y-108194255D01*
X97300500Y-111078869D01*
X97306909Y-111138483D01*
X97357204Y-111273331D01*
X97443454Y-111388546D01*
X97558669Y-111474796D01*
X97693517Y-111525091D01*
X97753127Y-111531500D01*
X101848872Y-111531499D01*
X101908483Y-111525091D01*
X102043331Y-111474796D01*
X102158546Y-111388546D01*
X102244796Y-111273331D01*
X102295091Y-111138483D01*
X102301500Y-111078873D01*
X102301500Y-109780500D01*
X102318113Y-109718500D01*
X102363500Y-109673113D01*
X102425500Y-109656500D01*
X102803048Y-109656500D01*
X102850501Y-109665939D01*
X102890729Y-109692819D01*
X103237181Y-110039271D01*
X103264061Y-110079499D01*
X103273500Y-110126952D01*
X103273500Y-111079008D01*
X103284000Y-111181797D01*
X103339186Y-111348336D01*
X103431288Y-111497655D01*
X103555345Y-111621712D01*
X103610313Y-111655617D01*
X103654037Y-111701707D01*
X103669196Y-111763403D01*
X103651811Y-111824508D01*
X103606445Y-111868983D01*
X103545008Y-111885155D01*
X94664540Y-111870231D01*
X94607135Y-111856034D01*
X94562832Y-111816865D01*
X94541708Y-111761632D01*
X94548567Y-111702897D01*
X94602097Y-111559378D01*
X94608500Y-111499824D01*
X94608500Y-110612000D01*
X91608500Y-110612000D01*
X91608500Y-111499824D01*
X91614902Y-111559377D01*
X91666480Y-111697664D01*
X91673325Y-111756503D01*
X91652095Y-111811803D01*
X91607634Y-111850945D01*
X91550090Y-111864997D01*
X90737002Y-111863631D01*
X90679597Y-111849434D01*
X90635294Y-111810265D01*
X90614170Y-111755032D01*
X90621028Y-111696297D01*
X90672097Y-111559375D01*
X90678500Y-111499824D01*
X90678500Y-110612000D01*
X87678500Y-110612000D01*
X87678500Y-111499824D01*
X87684902Y-111559375D01*
X87734016Y-111691055D01*
X87740861Y-111749894D01*
X87719631Y-111805195D01*
X87675170Y-111844337D01*
X87617626Y-111858389D01*
X86685442Y-111856822D01*
X86346291Y-111856252D01*
X86284380Y-111839571D01*
X86239078Y-111794193D01*
X86222500Y-111732253D01*
X86222500Y-110112000D01*
X87678500Y-110112000D01*
X88928500Y-110112000D01*
X88928500Y-108772000D01*
X89428500Y-108772000D01*
X89428500Y-110112000D01*
X90678500Y-110112000D01*
X90678500Y-109224176D01*
X90672097Y-109164624D01*
X90621852Y-109029910D01*
X90535688Y-108914811D01*
X90420589Y-108828647D01*
X90285875Y-108778402D01*
X90226324Y-108772000D01*
X89428500Y-108772000D01*
X88928500Y-108772000D01*
X88130676Y-108772000D01*
X88071124Y-108778402D01*
X87936410Y-108828647D01*
X87821311Y-108914811D01*
X87735147Y-109029910D01*
X87684902Y-109164624D01*
X87678500Y-109224176D01*
X87678500Y-110112000D01*
X86222500Y-110112000D01*
X86222500Y-108394632D01*
X86222504Y-108393683D01*
X86230273Y-107378771D01*
X86283757Y-100392000D01*
X87678500Y-100392000D01*
X87678500Y-101279824D01*
X87684902Y-101339375D01*
X87735147Y-101474089D01*
X87821311Y-101589188D01*
X87936410Y-101675352D01*
X88071124Y-101725597D01*
X88130676Y-101732000D01*
X88928500Y-101732000D01*
X88928500Y-100392000D01*
X87678500Y-100392000D01*
X86283757Y-100392000D01*
X86300797Y-98165957D01*
X86315794Y-98107789D01*
X86356376Y-98063493D01*
X86413016Y-98043471D01*
X86472421Y-98052423D01*
X86520646Y-98088247D01*
X86648707Y-98244292D01*
X86804784Y-98372379D01*
X86982848Y-98467557D01*
X87176067Y-98526170D01*
X87326639Y-98541000D01*
X87688732Y-98541000D01*
X87753899Y-98559505D01*
X87799616Y-98609496D01*
X87812238Y-98676053D01*
X87787999Y-98739311D01*
X87735147Y-98809911D01*
X87684902Y-98944624D01*
X87678500Y-99004176D01*
X87678500Y-99892000D01*
X88928500Y-99892000D01*
X88928500Y-98552000D01*
X88926905Y-98552000D01*
X88868452Y-98537358D01*
X88823803Y-98496890D01*
X88803502Y-98440154D01*
X88812344Y-98380547D01*
X88848241Y-98332146D01*
X88955292Y-98244292D01*
X89083379Y-98088215D01*
X89178558Y-97910150D01*
X89222285Y-97766000D01*
X87676000Y-97766000D01*
X87614000Y-97749387D01*
X87568613Y-97704000D01*
X87552000Y-97642000D01*
X87552000Y-90240000D01*
X87568613Y-90178000D01*
X87614000Y-90132613D01*
X87676000Y-90116000D01*
X89222285Y-90116000D01*
X89178558Y-89971849D01*
X89083379Y-89793784D01*
X88955291Y-89637706D01*
X88923600Y-89611698D01*
X88887686Y-89563256D01*
X88878871Y-89503600D01*
X88899239Y-89446841D01*
X88943973Y-89406401D01*
X89002486Y-89391846D01*
X123750026Y-89455771D01*
G37*
%TD.AperFunction*%
%TD*%
M02*
